<svg width="91" height="90" viewBox="0 0 91 90" fill="none" xmlns="http://www.w3.org/2000/svg">
<rect x="1.5" y="1" width="88" height="88" rx="16" fill="url(#paint0_linear_430_3295)"/>
<rect x="1.5" y="1" width="88" height="88" rx="16" stroke="url(#paint1_linear_430_3295)" stroke-opacity="0.5" stroke-width="2"/>
<path d="M20.2639 50.7096H20.2858V53.5955C20.2839 54.1881 20.4064 54.7746 20.6453 55.3169C20.8156 55.7004 21.0433 56.0558 21.3203 56.3709C21.7203 56.8231 22.2116 57.1853 22.7619 57.4336C23.3122 57.6819 23.9089 57.8106 24.5126 57.8113C25.046 57.8123 25.5745 57.7094 26.0686 57.5084C26.5935 57.2945 27.0701 56.9774 27.4702 56.5759L49.3095 34.7611H58.0584C58.6464 34.761 59.2279 34.638 59.7656 34.3999C60.3033 34.1619 60.7852 33.8141 61.1806 33.3789L69.6477 24.0401C70.005 23.6481 70.2856 23.1924 70.4746 22.6968C70.6528 22.2275 70.744 21.7296 70.7438 21.2276C70.7416 20.2846 70.4277 19.3688 69.851 18.6227C69.4727 18.1318 68.9899 17.7311 68.4376 17.4498C67.845 17.1518 67.1905 16.9977 66.5272 17H37.3988C36.8458 17.0001 36.2982 17.1091 35.7874 17.3209C35.2765 17.5328 34.8125 17.8432 34.4217 18.2346L21.511 31.1452C20.7233 31.9332 20.2802 33.0014 20.279 34.1155V38.5929C20.2647 38.8157 20.2588 39.0199 20.2588 39.1997C20.2588 39.4351 20.2681 39.6283 20.2782 39.7718L20.2639 50.7096ZM36.8089 20.6201C36.8865 20.5425 36.9786 20.4811 37.08 20.4392C37.1813 20.3974 37.29 20.376 37.3996 20.3762H66.5272C66.6472 20.3743 66.7662 20.3979 66.8765 20.4454C66.9472 20.4768 67.0127 20.519 67.0706 20.5703C67.1631 20.6534 67.2374 20.7548 67.2886 20.8681C67.3399 20.9814 67.3671 21.1041 67.3685 21.2285C67.3686 21.3213 67.3517 21.4134 67.3187 21.5002C67.2801 21.6014 67.2229 21.6944 67.1499 21.7744L58.6803 31.1115C58.6018 31.1979 58.506 31.2669 58.3992 31.3142C58.2924 31.3614 58.1769 31.3858 58.0601 31.3857H28.7242C27.9149 31.3805 27.1072 31.4571 26.3133 31.6144C26.0883 31.6617 25.8672 31.7154 25.6501 31.7756L36.8089 20.6201ZM23.6502 38.7195C23.6717 38.4491 23.7131 38.1805 23.7742 37.9162C23.8602 37.5325 23.9973 37.1622 24.1818 36.815C24.327 36.5446 24.5078 36.2948 24.7193 36.0724C24.8942 35.8891 25.0893 35.726 25.3007 35.5864C25.7072 35.3233 26.1538 35.1281 26.623 35.0083C27.3095 34.8341 28.016 34.751 28.7242 34.7611H44.5334L25.0847 54.187C25.004 54.2707 24.9069 54.3368 24.7995 54.3811C24.7087 54.4181 24.6114 54.4367 24.5134 54.436C24.4027 54.4361 24.2929 54.4149 24.1902 54.3735C24.1118 54.3428 24.0382 54.301 23.9717 54.2495C23.8778 54.1786 23.801 54.0874 23.7472 53.9828C23.6885 53.8623 23.6596 53.7295 23.6628 53.5955V39.9524C23.6628 39.9152 23.6628 39.8587 23.6628 39.7836C23.6628 39.7389 23.6578 39.6866 23.6527 39.6283L23.6502 38.7195Z" fill="#EADEFF"/>
<path d="M70.7348 39.2902H70.7163V36.4077C70.7186 35.8153 70.5961 35.229 70.3568 34.6871C70.1869 34.3034 69.9592 33.9479 69.6817 33.6331C69.2815 33.1799 68.7896 32.8167 68.2386 32.5677C67.6875 32.3187 67.09 32.1894 66.4853 32.1885C65.9517 32.1884 65.423 32.2912 64.9284 32.4914C64.4042 32.7061 63.9282 33.0234 63.5285 33.4247L41.6883 55.2387H32.9369C32.3488 55.2386 31.7671 55.3616 31.2294 55.5998C30.6917 55.838 30.2098 56.1861 29.8147 56.6217L21.3519 65.9596C20.9943 66.352 20.7135 66.808 20.5241 67.3039C20.3463 67.773 20.2551 68.2705 20.2549 68.7721C20.2569 69.7154 20.5708 70.6316 21.1477 71.3779C21.5393 71.8866 22.0434 72.2978 22.6205 72.5792C23.1976 72.8605 23.832 73.0045 24.4741 72.9998H53.61C54.7232 72.9967 55.7898 72.5524 56.5761 71.7644L69.4868 58.8579C70.1957 58.149 70.6281 57.2103 70.7061 56.2108L70.7196 56.172V55.8918C70.7205 55.886 70.7205 55.88 70.7196 55.8741L70.7239 51.4018C70.7391 51.179 70.745 50.9748 70.745 50.7959C70.745 50.5605 70.7357 50.3664 70.7255 50.2238L70.7348 39.2902ZM54.1897 69.3797C54.0329 69.536 53.8205 69.6237 53.5991 69.6236H24.4741C24.354 69.6263 24.2347 69.6027 24.1247 69.5544C24.0541 69.5231 23.9886 69.4813 23.9306 69.4303C23.8374 69.3476 23.7626 69.2464 23.7108 69.133C23.6591 69.0197 23.6316 68.8967 23.6302 68.7721C23.6298 68.6793 23.6464 68.5872 23.6792 68.5004C23.7178 68.3995 23.7751 68.3068 23.8479 68.227L32.3217 58.8891C32.4004 58.803 32.496 58.734 32.6026 58.6867C32.7092 58.6393 32.8245 58.6146 32.9411 58.614H62.2779C63.0872 58.6193 63.8949 58.5427 64.6887 58.3854C64.9166 58.3392 65.138 58.2855 65.3528 58.2242L54.1897 69.3797ZM67.3477 51.2803C67.3265 51.551 67.2853 51.8198 67.2245 52.0844C67.1379 52.4667 67.0006 52.8356 66.8161 53.1814C66.5515 53.6777 66.1672 54.1001 65.698 54.4101C65.2916 54.6735 64.845 54.8687 64.3757 54.9881C63.6905 55.1635 62.9851 55.2478 62.2779 55.2387H46.4653L65.914 35.817C65.9949 35.734 66.0916 35.668 66.1984 35.6229C66.2895 35.586 66.387 35.5674 66.4853 35.568C66.5959 35.5687 66.7055 35.5899 66.8085 35.6305C66.8866 35.6617 66.9601 35.7035 67.027 35.7545C67.1207 35.826 67.1974 35.9173 67.2515 36.022C67.3102 36.1422 67.3391 36.2748 67.3359 36.4085V50.0533C67.3359 50.0913 67.3359 50.1478 67.3359 50.2221C67.3359 50.2668 67.3359 50.32 67.3451 50.3774L67.3477 51.2803Z" fill="#EADEFF"/>
<defs>
<linearGradient id="paint0_linear_430_3295" x1="34" y1="38" x2="139.5" y2="235.5" gradientUnits="userSpaceOnUse">
<stop stop-color="#1B0B3A"/>
<stop offset="1" stop-color="#1B0B3A" stop-opacity="0"/>
</linearGradient>
<linearGradient id="paint1_linear_430_3295" x1="29" y1="-19" x2="67" y2="108.5" gradientUnits="userSpaceOnUse">
<stop stop-color="#C0A1F8"/>
<stop offset="1" stop-color="#EADEFF" stop-opacity="0"/>
</linearGradient>
</defs>
</svg>
