<svg width="76" height="76" viewBox="0 0 76 76" fill="none" xmlns="http://www.w3.org/2000/svg">
<rect x="2" y="2" width="72" height="72" rx="14" fill="url(#paint0_linear_410_2704)"/>
<rect x="1" y="1" width="74" height="74" rx="15" stroke="url(#paint1_linear_410_2704)" stroke-opacity="0.8" stroke-width="2"/>
<path d="M58.4886 34.5281C59.3233 34.5281 60 33.8514 60 33.0167C60 32.182 59.3233 31.5053 58.4886 31.5053H54.9352V29.5448H58.4886C59.3233 29.5448 60 28.8681 60 28.0334C60 27.1987 59.3233 26.522 58.4886 26.522H54.8328C54.3621 23.7924 52.2076 21.6379 49.478 21.1672V17.5114C49.478 16.6767 48.8015 16 47.9666 16C47.1317 16 46.4552 16.6767 46.4552 17.5114V21.0648H44.4947V17.5114C44.4947 16.6767 43.8181 16 42.9833 16C42.1485 16 41.4719 16.6767 41.4719 17.5114V21.0648H39.5114V17.5114C39.5114 16.6767 38.8348 16 38 16C37.1652 16 36.4886 16.6767 36.4886 17.5114V21.0648H34.5281V17.5114C34.5281 16.6767 33.8514 16 33.0167 16C32.182 16 31.5053 16.6767 31.5053 17.5114V21.0648H29.5448V17.5114C29.5448 16.6767 28.8681 16 28.0334 16C27.1987 16 26.522 16.6767 26.522 17.5114V21.1672C23.7924 21.6379 21.6379 23.7924 21.1672 26.522H17.5114C16.6767 26.522 16 27.1985 16 28.0334C16 28.8683 16.6767 29.5448 17.5114 29.5448H21.0648V31.5053H17.5114C16.6767 31.5053 16 32.1819 16 33.0167C16 33.8515 16.6767 34.5281 17.5114 34.5281H21.0648V36.4886H17.5114C16.6767 36.4886 16 37.1652 16 38C16 38.8348 16.6767 39.5114 17.5114 39.5114H21.0648V41.4719H17.5114C16.6767 41.4719 16 42.1486 16 42.9833C16 43.818 16.6767 44.4947 17.5114 44.4947H21.0648V46.4552H17.5114C16.6767 46.4552 16 47.1319 16 47.9666C16 48.8013 16.6767 49.478 17.5114 49.478H21.1672C21.6379 52.2076 23.7924 54.3621 26.522 54.8328V58.4886C26.522 59.3232 27.1985 60 28.0334 60C28.8683 60 29.5448 59.3232 29.5448 58.4886V54.9352H31.5053V58.4886C31.5053 59.3232 32.1819 60 33.0167 60C33.8515 60 34.5281 59.3232 34.5281 58.4886V54.9352H36.4886V58.4886C36.4886 59.3232 37.1652 60 38 60C38.8348 60 39.5114 59.3232 39.5114 58.4886V54.9352H41.4719V58.4886C41.4719 59.3232 42.1486 60 42.9833 60C43.818 60 44.4947 59.3232 44.4947 58.4886V54.9352H46.4552V58.4886C46.4552 59.3232 47.1319 60 47.9666 60C48.8013 60 49.478 59.3232 49.478 58.4886V54.8328C52.2076 54.3621 54.3621 52.2076 54.8328 49.478H58.4886C59.3233 49.478 60 48.8015 60 47.9666C60 47.1317 59.3233 46.4552 58.4886 46.4552H54.9352V44.4947H58.4886C59.3233 44.4947 60 43.8181 60 42.9833C60 42.1485 59.3233 41.4719 58.4886 41.4719H54.9352V39.5114H58.4886C59.3233 39.5114 60 38.8348 60 38C60 37.1652 59.3233 36.4886 58.4886 36.4886H54.9352V34.5281H58.4886ZM48.3597 52.3605H48.2626C48.1668 52.3414 48.068 52.3306 47.9666 52.3306C47.8652 52.3306 47.7664 52.3414 47.6706 52.3605H43.2793C43.1835 52.3414 43.0847 52.3306 42.9833 52.3306C42.8819 52.3306 42.7831 52.3414 42.6872 52.3605H38.2961C38.2002 52.3414 38.1014 52.3306 38 52.3306C37.8986 52.3306 37.7998 52.3414 37.7039 52.3605H33.3128C33.217 52.3414 33.1181 52.3306 33.0167 52.3306C32.9153 52.3306 32.8164 52.3414 32.7206 52.3605H28.3295C28.2337 52.3414 28.1348 52.3306 28.0334 52.3306C27.932 52.3306 27.8331 52.3414 27.7373 52.3605H27.6403C25.4344 52.3605 23.6395 50.5656 23.6395 48.3597V48.2623C23.6585 48.1666 23.6694 48.0679 23.6694 47.9666C23.6694 47.8653 23.6585 47.7666 23.6395 47.6709V43.279C23.6585 43.1833 23.6694 43.0846 23.6694 42.9833C23.6694 42.882 23.6585 42.7833 23.6395 42.6875V38.2957C23.6585 38.2 23.6694 38.1013 23.6694 38C23.6694 37.8987 23.6585 37.8 23.6395 37.7043V33.3125C23.6585 33.2168 23.6694 33.118 23.6694 33.0167C23.6694 32.9154 23.6585 32.8166 23.6395 32.7209V28.3292C23.6585 28.2335 23.6694 28.1347 23.6694 28.0334C23.6694 27.9321 23.6585 27.8334 23.6395 27.7376V27.6403C23.6395 25.4344 25.4344 23.6395 27.6403 23.6395H27.7377C27.8334 23.6585 27.9321 23.6694 28.0334 23.6694C28.1347 23.6694 28.2334 23.6585 28.3291 23.6395H32.721C32.8167 23.6585 32.9154 23.6694 33.0167 23.6694C33.118 23.6694 33.2167 23.6585 33.3125 23.6395H37.7043C37.8 23.6585 37.8987 23.6694 38 23.6694C38.1013 23.6694 38.2 23.6585 38.2957 23.6395H42.6875C42.7832 23.6585 42.882 23.6694 42.9833 23.6694C43.0846 23.6694 43.1833 23.6585 43.2791 23.6395H47.6708C47.7665 23.6585 47.8653 23.6694 47.9666 23.6694C48.0679 23.6694 48.1666 23.6585 48.2624 23.6395H48.3597C50.5656 23.6395 52.3605 25.4344 52.3605 27.6403V27.7377C52.3414 27.8334 52.3306 27.9321 52.3306 28.0334C52.3306 28.1347 52.3414 28.2334 52.3605 28.3291V32.721C52.3414 32.8167 52.3306 32.9154 52.3306 33.0167C52.3306 33.118 52.3414 33.2167 52.3605 33.3125V37.7043C52.3414 37.8 52.3306 37.8987 52.3306 38C52.3306 38.1013 52.3414 38.2 52.3605 38.2957V42.6875C52.3414 42.7832 52.3306 42.882 52.3306 42.9833C52.3306 43.0846 52.3414 43.1833 52.3605 43.2791V47.6708C52.3414 47.7665 52.3306 47.8653 52.3306 47.9666C52.3306 48.0679 52.3414 48.1666 52.3605 48.2624V48.3597C52.3605 50.5656 50.5656 52.3605 48.3597 52.3605Z" fill="white"/>
<path d="M48.3596 25.356H27.6403C26.3839 25.356 25.356 26.3839 25.356 27.6403V48.3596C25.356 49.616 26.3839 50.644 27.6403 50.644H48.3596C49.616 50.644 50.644 49.616 50.644 48.3596V27.6403C50.644 26.3839 49.616 25.356 48.3596 25.356ZM41.4341 44.4946C40.894 44.8131 40.2419 45.0338 39.5385 45.1638V46.0567C39.5385 46.6775 39.0306 47.1864 38.4088 47.1864H37.8212C37.2005 47.1864 36.6915 46.6785 36.6915 46.0567V45.198C35.459 45.0277 34.291 44.6286 33.4696 43.9897C32.6231 43.3316 32.4508 42.6262 32.9416 41.831C33.3678 41.1397 34.0471 40.9543 34.7757 41.3211C35.3622 41.6174 35.9417 41.9318 36.5474 42.1858C37.2851 42.4941 38.0601 42.5385 38.8452 42.3631C39.467 42.2251 39.9517 41.7948 40.0101 41.3201C40.0756 40.787 39.8479 40.3728 39.1838 40.0795C38.2989 39.6895 37.3698 39.3983 36.4829 39.0113C35.7251 38.6807 34.9309 38.3703 34.2718 37.8886C32.0406 36.259 32.3792 32.7781 34.8443 31.5174C35.4338 31.2161 36.0516 31.0417 36.6945 30.944V29.9432C36.6945 29.3224 37.2025 28.8135 37.8243 28.8135H38.4118C39.0326 28.8135 39.5415 29.3214 39.5415 29.9432V30.9611C40.1915 31.0659 40.8355 31.2443 41.4543 31.5255C41.9179 31.7361 42.3522 32.0455 42.7412 32.379C43.1836 32.758 43.227 33.28 43.0143 33.8111C42.7956 34.3573 42.4399 34.831 41.8151 34.8028C41.3706 34.7826 40.9141 34.582 40.5029 34.3815C39.5839 33.9321 38.6396 33.6176 37.6066 33.7053C37.2851 33.7325 36.9435 33.802 36.6613 33.9482C35.844 34.3704 35.8167 35.3318 36.63 35.7561C37.3012 36.1058 38.0379 36.3285 38.7353 36.6319C39.7471 37.0713 40.8093 37.4351 41.7445 38.0045C43.9506 39.3499 43.8619 43.0615 41.4341 44.4946Z" fill="white"/>
<defs>
<linearGradient id="paint0_linear_410_2704" x1="1.99999" y1="-19.5" x2="84" y2="141" gradientUnits="userSpaceOnUse">
<stop stop-color="#7756FE"/>
<stop offset="1" stop-color="#EADEFF"/>
</linearGradient>
<linearGradient id="paint1_linear_410_2704" x1="-75.2727" y1="-494.35" x2="127.813" y2="-481.677" gradientUnits="userSpaceOnUse">
<stop stop-color="white"/>
<stop offset="1" stop-color="#EADEFF"/>
</linearGradient>
</defs>
</svg>
