<svg width="21" height="18" viewBox="0 0 21 18" fill="none" xmlns="http://www.w3.org/2000/svg">
<path d="M19.0454 0.591309H1.9752C1.1533 0.591309 0.5 1.26569 0.5 2.06651V15.9334C0.5 16.7553 1.17438 17.4086 1.9752 17.4086H19.0243C19.8462 17.4086 20.4995 16.7342 20.4995 15.9334V2.06651C20.5206 1.24461 19.8462 0.591309 19.0454 0.591309ZM6.82229 2.10866C7.18056 2.10866 7.45452 2.4037 7.45452 2.74089C7.45452 3.09915 7.15948 3.37312 6.82229 3.37312C6.46403 3.37312 6.19006 3.07808 6.19006 2.74089C6.19006 2.38262 6.46403 2.10866 6.82229 2.10866ZM4.88346 2.10866C5.24172 2.10866 5.51569 2.4037 5.51569 2.74089C5.51569 3.09915 5.22064 3.37312 4.88346 3.37312C4.52519 3.37312 4.25123 3.07808 4.25123 2.74089C4.25123 2.38262 4.54627 2.10866 4.88346 2.10866ZM2.94462 2.10866C3.30288 2.10866 3.57685 2.4037 3.57685 2.74089C3.57685 3.09915 3.28181 3.37312 2.94462 3.37312C2.58636 3.37312 2.31239 3.07808 2.31239 2.74089C2.31239 2.38262 2.60743 2.10866 2.94462 2.10866ZM19.1508 15.9334C19.1508 15.9966 19.1086 16.0388 19.0454 16.0388H1.9752C1.91198 16.0388 1.86983 15.9966 1.86983 15.9334V4.91154H19.1508V15.9334Z" fill="#1B0B3A"/>
<path d="M6.67489 13.5734C6.80133 13.6998 6.96993 13.6998 7.09637 13.5734L7.85505 12.7936C7.98149 12.6672 7.98149 12.4775 7.85505 12.3722L5.95836 10.4755L7.85505 8.57879C7.98149 8.45234 7.98149 8.26267 7.85505 8.1573L7.09637 7.37755C6.96993 7.2511 6.80133 7.2511 6.67489 7.37755L3.78771 10.2647C3.66126 10.3912 3.66126 10.5808 3.78771 10.6862L6.67489 13.5734Z" fill="#1B0B3A"/>
<path d="M13.1446 12.8147L13.9033 13.5945C14.0298 13.7209 14.2194 13.7209 14.3248 13.5945L17.2331 10.6862C17.3595 10.5598 17.3595 10.3701 17.2331 10.2647L14.3459 7.37755C14.2194 7.2511 14.0508 7.2511 13.9244 7.37755L13.1446 8.1573C13.0182 8.28374 13.0182 8.47341 13.1446 8.57878L15.0413 10.4755L13.1446 12.3722C13.0393 12.4986 13.0393 12.6883 13.1446 12.8147Z" fill="#1B0B3A"/>
<path d="M8.95092 13.9943H9.87819C10.0046 13.9943 10.11 13.91 10.1522 13.7836L12.365 7.37697C12.4282 7.18731 12.2807 6.97656 12.091 6.97656H11.1426C11.0162 6.97656 10.9108 7.06086 10.8687 7.18731L8.65588 13.5939C8.59266 13.7836 8.74018 13.9943 8.95092 13.9943Z" fill="#1B0B3A"/>
</svg>
