<svg width="76" height="76" viewBox="0 0 76 76" fill="none" xmlns="http://www.w3.org/2000/svg">
<rect x="2" y="2" width="72" height="72" rx="14" fill="url(#paint0_linear_410_2692)"/>
<rect x="1" y="1" width="74" height="74" rx="15" stroke="url(#paint1_linear_410_2692)" stroke-opacity="0.8" stroke-width="2"/>
<path d="M48.2457 33.1277C40.6464 33.1277 34.4912 39.2828 34.4912 46.8822C34.4912 54.4815 40.6464 60.6367 48.2457 60.6367C55.8351 60.6367 62.0002 54.4815 62.0002 46.8822C62.0002 39.2828 55.8351 33.1277 48.2457 33.1277ZM54.2109 51.6313C53.9546 53.5309 52.7957 54.8226 50.7534 55.4596C50.4681 55.5542 50.1736 55.6114 49.8509 55.6778C49.8226 55.6869 49.7845 55.6968 49.7464 55.6968V57.9192H47.0678V55.7152C43.5439 54.8508 41.967 53.0366 42.2515 50.1871L42.2988 49.779H46.1836L46.2408 50.1688C46.269 50.3588 46.298 50.5487 46.3262 50.7387C46.4308 51.6885 47.0289 52.2775 47.9787 52.3538C48.0924 52.3629 48.216 52.3629 48.3396 52.3629L48.6058 52.3538C49.3847 52.3347 49.86 52.012 50.0492 51.404C50.2964 50.625 50.0775 49.856 49.5076 49.4852C49.1368 49.248 48.7286 49.058 48.3014 48.8581C48.0832 48.7635 47.8643 48.659 47.6461 48.5545C47.3516 48.4118 47.0479 48.2692 46.7535 48.1364C46.0317 47.8137 45.3001 47.4811 44.6448 47.0058C43.315 46.056 42.5933 44.479 42.7261 42.7976C42.8687 41.078 43.8376 39.6063 45.3383 38.8556C45.8036 38.6275 46.2881 38.4848 46.8008 38.333C46.9526 38.2857 47.1044 38.2384 47.257 38.1904V35.8444H49.9264V38.2666C51.646 38.6565 52.8049 39.4347 53.5357 40.6797C54.0293 41.525 54.2864 42.6938 54.172 43.6528L54.1339 44.0518H50.2392L50.1065 43.3492C50.0683 43.0737 50.021 42.8075 49.9447 42.5702C49.7265 41.905 49.223 41.5632 48.4342 41.5632C47.408 41.5823 47.1425 41.9904 46.9999 42.4276C46.7336 43.2256 46.9144 44.0045 47.4462 44.3463C47.8925 44.6408 48.3769 44.859 48.8904 45.097C49.0803 45.1923 49.2703 45.2778 49.4603 45.3632C49.7548 45.5151 50.0492 45.6486 50.3437 45.7813C50.9327 46.0567 51.5407 46.3321 52.1106 46.6838C53.7837 47.6993 54.5054 49.4181 54.2109 51.6313Z" fill="white"/>
<path d="M19.3501 39.9486C19.1692 39.5496 18.7702 38.8523 18.0729 38.6585C17.9173 38.6211 17.7487 38.6028 17.5748 38.6028C17.1384 38.6028 16.5281 38.7401 16.1168 39.1322C15.5874 39.6373 15.5065 40.5841 15.7369 41.17C16.3976 42.8774 17.3879 44.5031 18.684 46.0045C21.8432 49.668 25.8615 51.8362 30.6343 52.4465C31.2759 52.5274 31.9243 52.5709 32.572 52.5839C32.1235 51.3502 31.8122 50.048 31.6688 48.7022C26.2971 48.2536 21.5427 44.9204 19.3501 39.9486Z" fill="white"/>
<path d="M48.6148 24.0421C46.1536 20.117 42.3032 17.2881 37.7677 16.0797C35.9794 15.5998 34.2164 15.3633 32.5219 15.3633C27.6996 15.3633 23.3197 17.282 19.4998 21.0767C18.2349 22.3355 17.1821 23.7873 16.3284 25.4757L16.2849 25.4322C16.2788 25.4322 16.2727 25.42 16.2658 25.4131C16.1041 25.3002 15.593 24.8829 14.6775 24.1039L14.6645 24.0917C14.515 24.0048 14.3837 24.0231 14.3158 24.0421C14.2907 24.0482 14.2594 24.0605 14.2411 24.0734C14.1106 24.1421 14.0229 24.2664 14.0046 24.4099C13.9985 24.435 13.9985 24.4724 14.0046 24.5159L14.2098 26.0425L14.9575 31.5751L15.0635 32.3418C15.0948 32.6035 15.2443 32.8278 15.4747 32.9461C15.506 32.9644 15.5373 32.9834 15.5678 32.9957L15.5991 33.014C15.6738 33.0452 15.7486 33.0636 15.8295 33.0704C16.0347 33.0887 16.2468 33.0269 16.4215 32.8957L18.0602 31.6125L21.9297 28.5906L22.6461 28.0299C22.8078 27.8987 22.8513 27.6622 22.7521 27.4752C22.6895 27.3753 22.5904 27.3005 22.4652 27.2761L22.4469 27.27C21.2881 27.183 20.603 27.1266 20.397 27.0953C20.397 27.0953 20.291 27.0953 20.1101 27.0831C20.0293 27.077 19.9354 27.0709 19.8233 27.0579C20.2345 26.2729 20.7144 25.5436 21.2873 24.8524C24.3535 21.1202 28.2596 19.232 32.908 19.232C33.3131 19.232 33.7365 19.2442 34.1538 19.2755C40.2098 19.6867 45.5746 24.2596 47.1385 30.2477C47.5062 30.2225 47.874 30.2103 48.2478 30.2103C49.2258 30.2103 50.1856 30.2911 51.114 30.4597C50.6899 28.1916 49.8484 26.0105 48.6148 24.0421Z" fill="white"/>
<path d="M34.8014 31.7241L34.3467 24.2788C34.3406 23.4007 33.6174 22.6836 32.7331 22.6836C31.8482 22.6836 31.1318 23.4 31.1196 24.2788L30.6649 31.7241C29.7113 32.397 29.1261 33.5062 29.1261 34.6773C29.1261 34.852 29.1383 35.026 29.1635 35.2068L25.5931 39.2502C25.2879 39.5431 25.1132 39.9292 25.0949 40.3533C25.0758 40.7836 25.2253 41.1941 25.5183 41.5122C25.8235 41.8426 26.2598 42.0356 26.7084 42.0356C27.1074 42.0356 27.4874 41.886 27.7803 41.6244L31.9359 38.2035C32.1976 38.2592 32.4654 38.2904 32.7331 38.2904C33.2252 38.2904 33.699 38.1905 34.1285 38.0097C35.2561 37.5359 36.0976 36.5022 36.2967 35.2556C36.328 35.0687 36.3463 34.8757 36.3463 34.6758C36.347 33.5062 35.7611 32.397 34.8014 31.7241ZM32.7331 36.2542C31.8672 36.2542 31.157 35.5501 31.157 34.6781C31.157 33.8122 31.8672 33.108 32.7331 33.108C33.6051 33.108 34.3093 33.8122 34.3093 34.6781C34.3093 35.5501 33.6051 36.2542 32.7331 36.2542Z" fill="white"/>
<defs>
<linearGradient id="paint0_linear_410_2692" x1="1.99999" y1="-19.5" x2="84" y2="141" gradientUnits="userSpaceOnUse">
<stop stop-color="#7756FE"/>
<stop offset="1" stop-color="#EADEFF"/>
</linearGradient>
<linearGradient id="paint1_linear_410_2692" x1="-75.2727" y1="-494.35" x2="127.813" y2="-481.677" gradientUnits="userSpaceOnUse">
<stop stop-color="white"/>
<stop offset="1" stop-color="#EADEFF"/>
</linearGradient>
</defs>
</svg>
