<svg width="24" height="20" viewBox="0 0 24 20" fill="none" xmlns="http://www.w3.org/2000/svg">
<path d="M0.837606 17.5034H1.03201H5.49398H5.86225C6.03372 17.5034 6.17266 17.3645 6.17266 17.193V17.0247V14.1319V14.07C6.17266 13.8991 6.03372 13.7601 5.86225 13.7601H5.66785H1.20588H0.837606C0.666135 13.7601 0.527466 13.8991 0.527466 14.07V14.2388V17.1311V17.193C0.527466 17.3642 0.666135 17.5034 0.837606 17.5034ZM0.850139 14.0908H5.85078V17.1727H0.850139V14.0908Z" fill="#1B0B3A"/>
<path d="M5.862 17.6177H0.838152C0.644281 17.6177 0 18.7132 0 18.7132C0 18.9334 0.15707 19.1116 0.350674 19.1116H6.34947C6.54388 19.1116 6.70068 18.9334 6.70068 18.7132C6.70068 18.7132 6.0564 17.6177 5.862 17.6177Z" fill="#1B0B3A"/>
<path d="M14.3179 13.7601H9.85593H9.48739C9.31592 13.7601 9.17725 13.8991 9.17725 14.07V14.2388V17.1311V17.193C9.17725 17.3645 9.31618 17.5034 9.48739 17.5034H9.68179H14.1438H14.512C14.6835 17.5034 14.8224 17.3645 14.8224 17.193V17.0247V14.1319V14.07C14.8224 13.8991 14.6835 13.7601 14.512 13.7601H14.3179ZM14.5006 17.1727H9.49992V14.0908H14.5006V17.1727Z" fill="#1B0B3A"/>
<path d="M14.512 17.6177H9.48793C9.29406 17.6177 8.64978 18.7129 8.64978 18.7129C8.64978 18.9332 8.80685 19.1113 9.00045 19.1113H14.999C15.1934 19.1113 15.3502 18.9332 15.3502 18.7129C15.3502 18.7129 14.7062 17.6177 14.512 17.6177Z" fill="#1B0B3A"/>
<path d="M18.1375 13.7601C17.966 13.7601 17.8273 13.8991 17.8273 14.07V14.2388V17.1311V17.193C17.8273 17.3645 17.9663 17.5034 18.1375 17.5034H18.3319H22.7938H23.1621C23.3336 17.5034 23.4725 17.3645 23.4725 17.193V17.0247V14.1319V14.07C23.4725 13.8991 23.3336 13.7601 23.1621 13.7601H22.968H18.506H18.1375ZM23.1504 14.0908V17.1727H18.15V14.0908H23.1504Z" fill="#1B0B3A"/>
<path d="M23.1618 17.6177H18.1377C17.9438 17.6177 17.2996 18.7129 17.2996 18.7129C17.2996 18.9332 17.4566 19.1113 17.6502 19.1113H23.6488C23.8432 19.1113 24 18.9332 24 18.7129C24.0005 18.7132 23.3562 17.6177 23.1618 17.6177Z" fill="#1B0B3A"/>
<path d="M12.0003 3.07022C14.0885 3.07022 15.7814 2.58178 15.7814 1.97926C15.7814 1.37674 14.0885 0.888306 12.0003 0.888306C9.912 0.888306 8.21912 1.37674 8.21912 1.97926C8.21912 2.58178 9.912 3.07022 12.0003 3.07022Z" fill="#1B0B3A"/>
<path d="M12.0003 6.53218C14.0667 6.53218 15.7427 6.05297 15.7779 5.46016H15.7814V4.06839C15.779 4.67107 14.0875 5.15855 12.0003 5.15855C9.91194 5.15855 8.2191 4.67001 8.2191 4.06626C8.2191 4.06013 8.22257 4.05479 8.22257 4.04919H8.21857V5.46016H8.22257C8.25777 6.05297 9.933 6.53218 12.0003 6.53218Z" fill="#1B0B3A"/>
<path d="M15.7814 4.06597V4.04944H15.778C15.779 4.05504 15.7814 4.06037 15.7814 4.06597Z" fill="#1B0B3A"/>
<path d="M12.0003 8.22493C14.0667 8.22493 15.7427 7.74625 15.7779 7.15264H15.7814V5.76194C15.779 6.36329 14.0875 6.8513 12.0003 6.8513C9.91194 6.8513 8.2191 6.36222 8.2191 5.76061C8.2191 5.75394 8.22257 5.74754 8.22257 5.74194H8.21857V7.15237H8.22257C8.25777 7.74625 9.933 8.22493 12.0003 8.22493Z" fill="#1B0B3A"/>
<path d="M15.7814 5.75884V5.74231H15.778C15.779 5.74791 15.7814 5.75351 15.7814 5.75884Z" fill="#1B0B3A"/>
<path d="M12.0003 9.91824C14.0667 9.91824 15.7427 9.43956 15.7779 8.84595H15.7814V7.45418C15.779 8.05633 14.0875 8.54434 12.0003 8.54434C9.91194 8.54434 8.2191 8.05633 8.2191 7.45312C8.2191 7.44752 8.22257 7.44165 8.22257 7.43445H8.21857V8.84595H8.22257C8.25777 9.43956 9.933 9.91824 12.0003 9.91824Z" fill="#1B0B3A"/>
<path d="M15.7814 7.45205V7.43445H15.778C15.779 7.44112 15.7814 7.44645 15.7814 7.45205Z" fill="#1B0B3A"/>
<path d="M12.0003 4.80151C14.0667 4.80151 15.7427 4.32284 15.7779 3.72922H15.7814V2.33853C15.779 2.93987 14.0875 3.42788 12.0003 3.42788C9.91194 3.42788 8.2191 2.93934 8.2191 2.33613C8.2191 2.32946 8.22257 2.32359 8.22257 2.31799H8.21857V3.72896H8.22257C8.25777 4.32284 9.933 4.80151 12.0003 4.80151Z" fill="#1B0B3A"/>
<path d="M15.7814 2.31799H15.778C15.779 2.32359 15.7814 2.32893 15.7814 2.33506V2.31799Z" fill="#1B0B3A"/>
<path d="M3.55288 11.999H11.7563V13.3804H12.2435V11.999H20.4471V13.299H20.9343V11.5115H12.2435V10.5371H11.7563V11.5115H3.06567V13.299H3.55288V11.999Z" fill="#1B0B3A"/>
</svg>
