<svg width="20" height="19" viewBox="0 0 20 19" fill="none" xmlns="http://www.w3.org/2000/svg">
<path fill-rule="evenodd" clip-rule="evenodd" d="M1.34961 9.39502C1.34961 5.79988 1.34961 4.00231 2.2063 2.70757C2.58886 2.12941 3.084 1.63427 3.66216 1.25171C4.9569 0.39502 6.75447 0.39502 10.3496 0.39502C13.9447 0.39502 15.7423 0.39502 17.0371 1.25171C17.6152 1.63427 18.1104 2.12941 18.4929 2.70757C19.3496 4.00231 19.3496 5.79988 19.3496 9.39502C19.3496 12.9902 19.3496 14.7877 18.4929 16.0825C18.1104 16.6606 17.6152 17.1558 17.0371 17.5383C15.7423 18.395 13.9447 18.395 10.3496 18.395C6.75447 18.395 4.9569 18.395 3.66216 17.5383C3.084 17.1558 2.58886 16.6606 2.2063 16.0825C1.34961 14.7877 1.34961 12.9902 1.34961 9.39502ZM15.0089 9.39525C15.0089 11.9686 12.9228 14.0547 10.3494 14.0547C7.77613 14.0547 5.69004 11.9686 5.69004 9.39525C5.69004 6.82193 7.77613 4.73584 10.3494 4.73584C12.9228 4.73584 15.0089 6.82193 15.0089 9.39525ZM10.3494 12.4782C12.0521 12.4782 13.4325 11.0979 13.4325 9.39525C13.4325 7.69255 12.0521 6.31224 10.3494 6.31224C8.64675 6.31224 7.26645 7.69255 7.26645 9.39525C7.26645 11.0979 8.64675 12.4782 10.3494 12.4782ZM15.1929 5.59657C15.7975 5.59657 16.2877 5.1064 16.2877 4.50174C16.2877 3.89709 15.7975 3.40692 15.1929 3.40692C14.5882 3.40692 14.0981 3.89709 14.0981 4.50174C14.0981 5.1064 14.5882 5.59657 15.1929 5.59657Z" fill="#1B0B3A"/>
</svg>
