<svg width="76" height="76" viewBox="0 0 76 76" fill="none" xmlns="http://www.w3.org/2000/svg">
<rect x="2" y="2" width="72" height="72" rx="14" fill="url(#paint0_linear_410_2680)"/>
<rect x="1" y="1" width="74" height="74" rx="15" stroke="url(#paint1_linear_410_2680)" stroke-opacity="0.8" stroke-width="2"/>
<path d="M58.3665 43.8281C58.2133 43.8283 58.0611 43.8517 57.915 43.8976L48.5172 46.761C48.7109 47.2998 48.7747 47.8768 48.7032 48.445C48.6318 49.0131 48.4271 49.5563 48.1059 50.0304C47.7848 50.5045 47.3562 50.896 46.855 51.173C46.3539 51.45 45.7944 51.6048 45.2221 51.6246C44.2707 51.6571 40.3956 51.8056 37.4301 51.917L34.5852 52.0237C34.3191 52.0288 34.0613 51.9307 33.8659 51.7499C33.6804 51.5743 33.572 51.3324 33.5642 51.077C33.559 50.9481 33.5792 50.8194 33.6238 50.6984C33.6684 50.5773 33.7365 50.4663 33.8241 50.3716C33.912 50.2765 34.0181 50.2 34.136 50.1466C34.254 50.0932 34.3815 50.064 34.511 50.0607C36.8314 49.9678 43.8206 49.7126 45.1571 49.6662C45.5643 49.6518 45.9523 49.4892 46.248 49.2089C46.5437 48.9285 46.7268 48.5498 46.7629 48.144C46.7675 48.0976 46.7675 48.0465 46.7675 47.9955C46.7667 47.6103 46.6327 47.2372 46.3882 46.9395C46.1438 46.6418 45.804 46.4377 45.4263 46.3619C44.0155 46.0788 40.4002 45.4755 37.806 45.0485C36.349 44.8013 34.9706 44.2147 33.7824 43.336C28.9326 39.7486 24.2778 41.6236 22.3843 42.6817L16 46.8229V59.0439C18.0111 57.6512 20.2908 56.6938 22.6932 56.233C25.0956 55.7722 27.5678 55.8182 29.9514 56.3679L33.2904 57.138C35.3801 57.663 37.5881 57.4312 39.5231 56.4836L59.0937 46.8956C59.3104 46.7883 59.5004 46.6341 59.6498 46.444C59.7993 46.254 59.9044 46.033 59.9575 45.7971C60.0107 45.5612 60.0105 45.3165 59.9569 45.0807C59.9034 44.845 59.7979 44.6241 59.6481 44.4343C59.4943 44.2429 59.299 44.0889 59.077 43.9838C58.855 43.8788 58.6121 43.8255 58.3665 43.8281Z" fill="url(#paint2_linear_410_2680)"/>
<path d="M58.2976 21.254H44.6993L37.7201 17.1549C37.386 16.9604 36.9886 16.9059 36.6145 17.0033C36.2404 17.1007 35.9201 17.3421 35.7234 17.6749L33.6217 21.254H32.0403C31.5889 21.2545 31.1562 21.434 30.8371 21.7532C30.5179 22.0723 30.3384 22.5051 30.3379 22.9564V37.0998C30.3381 37.5515 30.5175 37.9845 30.8367 38.304C31.1558 38.6235 31.5887 38.8034 32.0403 38.8041H45.6414L52.6179 42.902C52.9518 43.0973 53.3494 43.1522 53.7237 43.0548C54.098 42.9573 54.4184 42.7154 54.6146 42.3821L56.7147 38.8041H58.2976C58.7492 38.8034 59.1821 38.6236 59.5013 38.304C59.8204 37.9845 59.9998 37.5515 60.0001 37.0999V22.9564C59.9996 22.505 59.82 22.0723 59.5009 21.7532C59.1817 21.434 58.749 21.2545 58.2976 21.254ZM57.6053 32.6728C56.7421 32.9755 55.9582 33.4686 55.3114 34.1153C54.6646 34.7621 54.1716 35.5461 53.8689 36.4092H36.4691C36.1664 35.5461 35.6733 34.7621 35.0266 34.1153C34.3798 33.4686 33.5958 32.9755 32.7327 32.6728V27.3853C33.5958 27.0826 34.3798 26.5895 35.0266 25.9427C35.6734 25.2959 36.1664 24.5118 36.4691 23.6486H53.8689C54.1715 24.5118 54.6645 25.2959 55.3113 25.9427C55.9581 26.5895 56.7421 27.0826 57.6053 27.3853V32.6728Z" fill="url(#paint3_linear_410_2680)"/>
<path d="M37.7179 31.9082C38.756 31.6632 39.399 30.6229 39.1539 29.5848C38.9088 28.5466 37.8686 27.9037 36.8304 28.1488C35.7923 28.3939 35.1494 29.4341 35.3944 30.4723C35.6395 31.5104 36.6797 32.1533 37.7179 31.9082Z" fill="url(#paint4_linear_410_2680)"/>
<path d="M53.5074 31.9082C54.5456 31.6632 55.1885 30.6229 54.9434 29.5848C54.6984 28.5466 53.6581 27.9037 52.62 28.1488C51.5818 28.3939 50.9389 29.4341 51.184 30.4723C51.429 31.5104 52.4693 32.1533 53.5074 31.9082Z" fill="url(#paint5_linear_410_2680)"/>
<path d="M47.9396 32.7996C49.4698 31.2695 49.4698 28.7886 47.9396 27.2585C46.4095 25.7283 43.9286 25.7284 42.3985 27.2585C40.8684 28.7886 40.8684 31.2695 42.3985 32.7996C43.9286 34.3298 46.4095 34.3298 47.9396 32.7996Z" fill="url(#paint6_linear_410_2680)"/>
<defs>
<linearGradient id="paint0_linear_410_2680" x1="1.99999" y1="-19.5" x2="84" y2="141" gradientUnits="userSpaceOnUse">
<stop stop-color="#7756FE"/>
<stop offset="1" stop-color="#EADEFF"/>
</linearGradient>
<linearGradient id="paint1_linear_410_2680" x1="-75.2727" y1="-494.35" x2="127.813" y2="-481.677" gradientUnits="userSpaceOnUse">
<stop stop-color="white"/>
<stop offset="1" stop-color="#EADEFF"/>
</linearGradient>
<linearGradient id="paint2_linear_410_2680" x1="18.4998" y1="42.103" x2="35.2256" y2="108.798" gradientUnits="userSpaceOnUse">
<stop stop-color="white"/>
<stop offset="1" stop-color="white" stop-opacity="0"/>
</linearGradient>
<linearGradient id="paint3_linear_410_2680" x1="32.0232" y1="18.2258" x2="75.8159" y2="98.4012" gradientUnits="userSpaceOnUse">
<stop stop-color="white"/>
<stop offset="1" stop-color="white" stop-opacity="0"/>
</linearGradient>
<linearGradient id="paint4_linear_410_2680" x1="35.2074" y1="28.7247" x2="44.462" y2="37.9575" gradientUnits="userSpaceOnUse">
<stop stop-color="white"/>
<stop offset="1" stop-color="white" stop-opacity="0"/>
</linearGradient>
<linearGradient id="paint5_linear_410_2680" x1="50.9969" y1="28.7247" x2="60.2516" y2="37.9575" gradientUnits="userSpaceOnUse">
<stop stop-color="white"/>
<stop offset="1" stop-color="white" stop-opacity="0"/>
</linearGradient>
<linearGradient id="paint6_linear_410_2680" x1="40.2119" y1="29.9833" x2="66.0297" y2="36.0459" gradientUnits="userSpaceOnUse">
<stop stop-color="white"/>
<stop offset="1" stop-color="white" stop-opacity="0"/>
</linearGradient>
</defs>
</svg>
