<svg width="20" height="19" viewBox="0 0 20 19" fill="none" xmlns="http://www.w3.org/2000/svg">
<path d="M1.34961 3.31507C1.34961 2.73786 1.55232 2.26167 1.95772 1.8865C2.36312 1.51131 2.89016 1.32373 3.5388 1.32373C4.17587 1.32373 4.6913 1.50842 5.08513 1.87784C5.49053 2.2588 5.69324 2.75518 5.69324 3.36702C5.69324 3.92113 5.49633 4.38288 5.1025 4.7523C4.69711 5.13325 4.16428 5.32373 3.50405 5.32373H3.48668C2.8496 5.32373 2.33417 5.13325 1.94034 4.7523C1.54651 4.37135 1.34961 3.89227 1.34961 3.31507ZM1.57548 18.4666V6.89949H5.43262V18.4666H1.57548ZM7.56969 18.4666H11.4268V12.0077C11.4268 11.6037 11.4732 11.292 11.5658 11.0726C11.728 10.6801 11.9741 10.3482 12.3042 10.077C12.6344 9.80568 13.0484 9.67005 13.5465 9.67005C14.8438 9.67005 15.4925 10.5416 15.4925 12.2848V18.4666H19.3496V11.8345C19.3496 10.126 18.9442 8.83022 18.1334 7.9471C17.3226 7.06399 16.2512 6.62243 14.9191 6.62243C13.4249 6.62243 12.2608 7.26312 11.4268 8.54451V8.57914H11.4095L11.4268 8.54451V6.89949H7.56969C7.59285 7.26889 7.60444 8.41751 7.60444 10.3454C7.60444 12.2732 7.59285 14.9803 7.56969 18.4666Z" fill="#1B0B3A"/>
</svg>
