<svg width="46" height="46" viewBox="0 0 46 46" fill="none" xmlns="http://www.w3.org/2000/svg">
<rect x="1" y="1" width="44" height="44" rx="8" fill="url(#paint0_linear_410_2838)"/>
<rect x="1" y="1" width="44" height="44" rx="8" stroke="url(#paint1_linear_410_2838)" stroke-opacity="0.32" stroke-width="1.5"/>
<path d="M12.1848 25.447H12.1942V26.6838C12.1934 26.9378 12.2459 27.1891 12.3483 27.4215C12.4213 27.5859 12.5188 27.7382 12.6376 27.8732C12.809 28.067 13.0196 28.2223 13.2554 28.3287C13.4912 28.4351 13.7469 28.4903 14.0057 28.4906C14.2343 28.491 14.4608 28.4469 14.6725 28.3607C14.8975 28.2691 15.1018 28.1332 15.2732 27.9611L24.6329 18.6119H28.3825C28.6345 18.6118 28.8837 18.5591 29.1141 18.4571C29.3445 18.3551 29.5511 18.206 29.7205 18.0195L33.3493 14.0172C33.5024 13.8492 33.6227 13.6539 33.7037 13.4415C33.78 13.2403 33.8191 13.027 33.8191 12.8118C33.8181 12.4077 33.6836 12.0152 33.4364 11.6955C33.2743 11.485 33.0674 11.3133 32.8307 11.1928C32.5767 11.065 32.2962 10.999 32.0119 11H19.5283C19.2913 11 19.0566 11.0468 18.8377 11.1375C18.6188 11.2283 18.4199 11.3614 18.2524 11.5291L12.7193 17.0622C12.3817 17.3999 12.1918 17.8577 12.1913 18.3352V20.2541C12.1851 20.3496 12.1826 20.4371 12.1826 20.5141C12.1826 20.615 12.1866 20.6979 12.1909 20.7593L12.1848 25.447ZM19.2755 12.5515C19.3088 12.5182 19.3482 12.4919 19.3917 12.474C19.4351 12.456 19.4817 12.4468 19.5287 12.4469H32.0119C32.0634 12.4461 32.1144 12.4563 32.1616 12.4766C32.1919 12.4901 32.22 12.5081 32.2448 12.5301C32.2845 12.5657 32.3163 12.6092 32.3383 12.6578C32.3602 12.7063 32.3719 12.7589 32.3725 12.8122C32.3725 12.852 32.3653 12.8915 32.3511 12.9287C32.3346 12.972 32.3101 13.0119 32.2788 13.0462L28.649 17.0478C28.6153 17.0848 28.5743 17.1144 28.5285 17.1346C28.4827 17.1549 28.4332 17.1653 28.3832 17.1653H15.8106C15.4638 17.1631 15.1176 17.1959 14.7774 17.2633C14.681 17.2836 14.5862 17.3066 14.4932 17.3324L19.2755 12.5515ZM13.6361 20.3084C13.6453 20.1925 13.6631 20.0774 13.6892 19.9641C13.7261 19.7997 13.7848 19.6409 13.8639 19.4921C13.9261 19.3762 14.0036 19.2692 14.0943 19.1739C14.1692 19.0953 14.2528 19.0254 14.3434 18.9656C14.5177 18.8528 14.7091 18.7692 14.9101 18.7179C15.2044 18.6432 15.5071 18.6076 15.8106 18.6119H22.586L14.2509 26.9373C14.2163 26.9731 14.1747 27.0015 14.1286 27.0205C14.0897 27.0363 14.048 27.0443 14.006 27.044C13.9586 27.044 13.9115 27.035 13.8675 27.0172C13.8339 27.0041 13.8024 26.9862 13.7739 26.9641C13.7336 26.9337 13.7007 26.8946 13.6777 26.8498C13.6525 26.7981 13.6401 26.7412 13.6415 26.6838V20.8367C13.6415 20.8208 13.6415 20.7966 13.6415 20.7644C13.6415 20.7452 13.6393 20.7228 13.6371 20.6979L13.6361 20.3084Z" fill="#EADEFF"/>
<path d="M33.8149 20.553H33.807V19.3176C33.808 19.0637 33.7555 18.8125 33.6529 18.5802C33.5801 18.4158 33.4825 18.2635 33.3636 18.1285C33.1921 17.9343 32.9813 17.7787 32.7451 17.6719C32.509 17.5652 32.2528 17.5098 31.9937 17.5094C31.765 17.5093 31.5384 17.5534 31.3265 17.6392C31.1018 17.7312 30.8978 17.8672 30.7265 18.0392L21.3664 27.3881H17.6158C17.3638 27.388 17.1145 27.4407 16.884 27.5428C16.6536 27.6449 16.4471 27.7941 16.2777 27.9808L12.6508 31.9828C12.4976 32.1509 12.3772 32.3463 12.296 32.5589C12.2198 32.7599 12.1807 32.9731 12.1807 33.1881C12.1815 33.5924 12.316 33.985 12.5633 34.3049C12.7311 34.5229 12.9472 34.6991 13.1945 34.8197C13.4418 34.9403 13.7137 35.002 13.9889 35H26.4757C26.9528 34.9986 27.4099 34.8082 27.7469 34.4705L33.2801 28.9392C33.5839 28.6354 33.7692 28.233 33.8026 27.8047L33.8084 27.788V27.668C33.8088 27.6655 33.8088 27.6629 33.8084 27.6604L33.8102 25.7437C33.8167 25.6482 33.8193 25.5607 33.8193 25.484C33.8193 25.3831 33.8153 25.2999 33.8109 25.2388L33.8149 20.553ZM26.7242 33.4485C26.657 33.5155 26.5659 33.5531 26.471 33.553H13.9889C13.9374 33.5542 13.8863 33.5441 13.8392 33.5234C13.8089 33.51 13.7808 33.492 13.756 33.4702C13.716 33.4348 13.684 33.3913 13.6618 33.3428C13.6396 33.2942 13.6278 33.2415 13.6272 33.1881C13.6271 33.1483 13.6342 33.1089 13.6482 33.0717C13.6648 33.0284 13.6893 32.9887 13.7205 32.9545L17.3522 28.9525C17.3859 28.9156 17.4269 28.8861 17.4725 28.8658C17.5182 28.8455 17.5676 28.8349 17.6176 28.8346H30.1905C30.5374 28.8369 30.8835 28.8041 31.2237 28.7366C31.3214 28.7169 31.4163 28.6938 31.5084 28.6676L26.7242 33.4485ZM32.3633 25.6916C32.3542 25.8076 32.3366 25.9228 32.3105 26.0362C32.2734 26.2001 32.2145 26.3582 32.1355 26.5064C32.0221 26.7191 31.8574 26.9001 31.6563 27.0329C31.4821 27.1458 31.2907 27.2295 31.0896 27.2807C30.7959 27.3558 30.4936 27.392 30.1905 27.3881H23.4137L31.7489 19.0645C31.7835 19.0289 31.825 19.0006 31.8707 18.9813C31.9098 18.9655 31.9516 18.9575 31.9937 18.9578C32.0411 18.9581 32.0881 18.9672 32.1322 18.9845C32.1657 18.9979 32.1972 19.0158 32.2259 19.0377C32.266 19.0683 32.2989 19.1075 32.3221 19.1523C32.3472 19.2039 32.3596 19.2607 32.3582 19.318V25.1658C32.3582 25.182 32.3582 25.2063 32.3582 25.2381C32.3582 25.2573 32.3582 25.28 32.3622 25.3046L32.3633 25.6916Z" fill="#EADEFF"/>
<defs>
<linearGradient id="paint0_linear_410_2838" x1="17.25" y1="19.5" x2="70" y2="118.25" gradientUnits="userSpaceOnUse">
<stop stop-color="#1B0B3A"/>
<stop offset="1" stop-color="#1B0B3A" stop-opacity="0"/>
</linearGradient>
<linearGradient id="paint1_linear_410_2838" x1="0.999995" y1="-12.1389" x2="51.1111" y2="85.9444" gradientUnits="userSpaceOnUse">
<stop stop-color="#7756FE"/>
<stop offset="1" stop-color="#EADEFF"/>
</linearGradient>
</defs>
</svg>
