<svg width="76" height="76" viewBox="0 0 76 76" fill="none" xmlns="http://www.w3.org/2000/svg">
<rect x="2" y="2" width="72" height="72" rx="14" fill="url(#paint0_linear_410_2712)"/>
<rect x="1" y="1" width="74" height="74" rx="15" stroke="url(#paint1_linear_410_2712)" stroke-opacity="0.8" stroke-width="2"/>
<path d="M38.8579 24.4075V26.8572H41.3076C41.1543 26.2678 40.8465 25.7299 40.4158 25.2993C39.9852 24.8686 39.4473 24.5608 38.8579 24.4075Z" fill="white"/>
<path d="M30.2861 49.9999H37.1433V36.2856H30.2861V49.9999ZM32.0004 41.4285C32.0004 41.2012 32.0907 40.9832 32.2515 40.8224C32.4122 40.6617 32.6302 40.5714 32.8576 40.5714C33.0849 40.5714 33.3029 40.6617 33.4637 40.8224C33.6244 40.9832 33.7147 41.2012 33.7147 41.4285V43.1428C33.7147 43.3701 33.6244 43.5881 33.4637 43.7489C33.3029 43.9096 33.0849 43.9999 32.8576 43.9999C32.6302 43.9999 32.4122 43.9096 32.2515 43.7489C32.0907 43.5881 32.0004 43.3701 32.0004 43.1428V41.4285Z" fill="white"/>
<path d="M38.8578 50H50.8579V41.636L46.9253 40.1651C46.1369 39.8706 45.4892 39.2886 45.1124 38.5361C44.7356 37.7835 44.6577 36.9162 44.8942 36.1085C45.1308 35.3008 45.6644 34.6127 46.3877 34.1823C47.1109 33.752 47.9703 33.6114 48.793 33.7888L50.8579 34.2286V29.2871L38.0007 19.2183L25.1436 29.288V50H28.5721V36.2857C28.5721 35.831 28.7527 35.395 29.0742 35.0735C29.3957 34.752 29.8318 34.5714 30.2864 34.5714H37.1436C37.5982 34.5714 38.0343 34.752 38.3557 35.0735C38.6772 35.395 38.8578 35.831 38.8578 36.2857V50ZM38.0007 32.8571C36.9835 32.8571 35.9892 32.5555 35.1435 31.9904C34.2977 31.4253 33.6386 30.6221 33.2493 29.6824C32.8601 28.7426 32.7582 27.7086 32.9567 26.7109C33.1551 25.7133 33.6449 24.797 34.3642 24.0777C35.0834 23.3585 35.9998 22.8687 36.9974 22.6702C37.995 22.4718 39.0291 22.5736 39.9688 22.9629C40.9085 23.3521 41.7117 24.0113 42.2768 24.857C42.8419 25.7028 43.1436 26.6971 43.1436 27.7143C43.1422 29.0778 42.5999 30.3851 41.6358 31.3493C40.6716 32.3135 39.3643 32.8558 38.0007 32.8571Z" fill="white"/>
<path d="M34.6938 26.8572H37.1436V24.4075C36.5545 24.5615 36.0171 24.8696 35.5865 25.3002C35.156 25.7307 34.8479 26.2681 34.6938 26.8572Z" fill="white"/>
<path d="M37.1436 31.0212V28.5715H34.6938C34.8479 29.1606 35.156 29.698 35.5865 30.1286C36.0171 30.5591 36.5545 30.8672 37.1436 31.0212Z" fill="white"/>
<path d="M39.054 17.8649L55.662 30.8737C55.7948 30.9786 55.9474 31.0556 56.1106 31.1001C56.2738 31.1446 56.4444 31.1558 56.612 31.1329C56.7796 31.11 56.9409 31.0536 57.0863 30.9669C57.2316 30.8803 57.3579 30.7652 57.4577 30.6286C57.6619 30.3508 57.75 30.0045 57.7033 29.6629C57.6566 29.3213 57.4787 29.0113 57.2075 28.7986L38.0006 14L18.7954 28.7952C18.5229 29.0077 18.3441 29.3183 18.297 29.6607C18.25 30.0031 18.3384 30.3504 18.5434 30.6286C18.6431 30.7651 18.7692 30.8802 18.9142 30.9669C19.0593 31.0537 19.2203 31.1103 19.3877 31.1335C19.5551 31.1567 19.7255 31.146 19.8886 31.1019C20.0518 31.0579 20.2044 30.9814 20.3374 30.8772L36.9472 17.8657C37.2476 17.6298 37.6185 17.5015 38.0004 17.5014C38.3824 17.5012 38.7534 17.6292 39.054 17.8649Z" fill="white"/>
<path d="M55.0044 36.8729L48.4327 35.4646C48.0595 35.3856 47.6704 35.4407 47.3339 35.6202C46.9973 35.7997 46.7347 36.0921 46.5924 36.446C46.5125 36.6458 46.4733 36.8596 46.4772 37.0748C46.481 37.29 46.5277 37.5023 46.6147 37.6991C46.7016 37.896 46.827 38.0735 46.9835 38.2213C47.1399 38.3691 47.3243 38.4841 47.5258 38.5597L52.0156 40.238L53.7298 40.8774C53.8376 40.9151 53.9367 40.9738 54.0214 41.0503C54.1062 41.1267 54.1748 41.2193 54.2232 41.3227C54.2717 41.426 54.299 41.538 54.3036 41.652C54.3083 41.766 54.2901 41.8798 54.2501 41.9867C54.2102 42.0936 54.1493 42.1915 54.071 42.2745C53.9927 42.3576 53.8987 42.4241 53.7943 42.4704C53.69 42.5166 53.5774 42.5415 53.4633 42.5436C53.3492 42.5458 53.2359 42.5251 53.1298 42.4829L52.5718 42.2763V50H53.429C53.6563 50 53.8743 50.0903 54.0351 50.2511C54.1958 50.4118 54.2861 50.6298 54.2861 50.8572C54.2861 51.0845 54.1958 51.3025 54.0351 51.4632C53.8743 51.624 53.6563 51.7143 53.429 51.7143H38.4238C38.9501 52.7353 39.8002 53.5529 40.841 54.0389C41.2598 54.2199 41.6239 54.5073 41.8974 54.8725C42.1709 55.2377 42.3442 55.6681 42.4001 56.1209L42.9718 61.2372C42.995 61.4467 43.0947 61.6404 43.2517 61.7812C43.4087 61.9219 43.6121 61.9998 43.823 62H54.2861C54.5135 62 54.7315 61.9097 54.8922 61.749C55.053 61.5882 55.1433 61.3702 55.1433 61.1429V56.4286C55.1441 56.0164 55.2397 55.6099 55.4227 55.2406L56.9004 52.2869C57.4352 51.2145 57.7139 50.0326 57.7147 48.8343V40.2286C57.7121 39.4443 57.4422 38.6844 56.9494 38.0743C56.4567 37.4642 55.7706 37.0404 55.0044 36.8729Z" fill="white"/>
<path d="M38.8579 31.0212C39.4473 30.868 39.9852 30.5601 40.4158 30.1294C40.8465 29.6988 41.1543 29.161 41.3076 28.5715H38.8579V31.0212Z" fill="white"/>
<defs>
<linearGradient id="paint0_linear_410_2712" x1="1.99999" y1="-19.5" x2="84" y2="141" gradientUnits="userSpaceOnUse">
<stop stop-color="#7756FE"/>
<stop offset="1" stop-color="#EADEFF"/>
</linearGradient>
<linearGradient id="paint1_linear_410_2712" x1="-75.2727" y1="-494.35" x2="127.813" y2="-481.677" gradientUnits="userSpaceOnUse">
<stop stop-color="white"/>
<stop offset="1" stop-color="#EADEFF"/>
</linearGradient>
</defs>
</svg>
