<svg width="81" height="24" viewBox="0 0 81 24" fill="none" xmlns="http://www.w3.org/2000/svg">
<path d="M0 18.9153V0.813559H7.34746C11.161 0.813559 13.6525 3.33051 13.6525 6.68644C13.6525 10.0678 11.1356 12.5593 7.34746 12.5593H2.92373V18.9153H0ZM2.92373 10.0678H7.11864C9.38136 10.0678 10.6271 8.74576 10.6271 6.71186C10.6271 4.70339 9.38136 3.35593 7.11864 3.35593H2.92373V10.0678Z" fill="#1B0B3A"/>
<path d="M27.6072 16.8305H28.0902V18.9153H26.514C25.4462 18.9153 24.4801 18.5085 24.2767 17.2627C23.5394 18.4068 21.9377 19.1695 19.9038 19.1695C17.0309 19.1695 15.2004 17.6695 15.2004 15.178C15.2004 12.9661 16.5987 11.339 20.158 11.339H23.9462V10.678C23.9462 8.77119 22.8021 7.88136 21.0987 7.88136C19.3699 7.88136 18.2513 8.74576 18.175 10.0932H15.6072C15.6835 7.27119 17.997 5.64407 21.2004 5.64407C24.2513 5.64407 26.7428 7.16949 26.7428 10.7034V15.9661C26.7428 16.678 27.0224 16.8305 27.6072 16.8305ZM23.9462 13.7797V13.2458H20.5394C18.658 13.2458 18.0733 14.0847 18.0733 15.0508C18.0733 16.3729 19.1157 16.9576 20.5394 16.9576C22.4716 16.9576 23.9462 15.9153 23.9462 13.7797Z" fill="#1B0B3A"/>
<path d="M31.44 5.8983L35.3044 16.678L38.8892 5.87288L41.7875 5.8983L36.3214 21C35.4061 23.5424 33.8044 24 31.8722 24H28.9993V21.5339H31.8976C32.9909 21.5339 33.6265 20.9492 33.6265 19.8051C33.6265 19.4746 33.5502 19.1441 33.3976 18.7373L28.44 5.8983H31.44Z" fill="#1B0B3A"/>
<path d="M42.7462 5.8983H44.8818V3.78814C44.8818 1.32203 46.0513 0 48.8733 0H50.7801V2.33898H49.3564C47.9581 2.33898 47.6784 3.02542 47.6784 3.99153V5.8983H50.7801V8.33898H47.6784V18.9153H44.8818V8.33898H42.7462V5.8983Z" fill="#1B0B3A"/>
<path d="M65.137 12.1271V13.1695H55.1709C55.2217 15.6102 56.8234 16.8814 58.8573 16.8814C60.3827 16.8814 61.6539 16.1695 62.1878 14.7458H65.0099C64.3234 17.3898 61.9844 19.1695 58.8065 19.1695C54.9166 19.1695 52.3488 16.4746 52.3488 12.3814C52.3488 8.31356 54.9166 5.61864 58.781 5.61864C62.5692 5.61864 65.137 8.21186 65.137 12.1271ZM58.781 7.83051C56.9251 7.83051 55.3997 8.97458 55.1963 11.2373H62.3149C62.1624 8.97458 60.6624 7.83051 58.781 7.83051Z" fill="#1B0B3A"/>
<path d="M74.8135 5.64407C78.0931 5.64407 80.0254 7.80509 80.0254 11.1356V18.9153H77.2287V11.7203C77.2287 9.27966 75.983 8.08475 74.0762 8.08475C71.9152 8.08475 70.7457 9.61017 70.7457 11.9237V18.9153H67.9745V5.8983H70.4915L70.6948 7.65254C71.4321 6.40678 72.8304 5.64407 74.8135 5.64407Z" fill="#1B0B3A"/>
</svg>
