<svg width="21" height="20" viewBox="0 0 21 20" fill="none" xmlns="http://www.w3.org/2000/svg">
<path d="M20.1323 12.7696C20.0595 12.7697 19.9872 12.7808 19.9177 12.8026L15.452 14.1633C15.544 14.4194 15.5743 14.6935 15.5404 14.9635C15.5064 15.2335 15.4092 15.4916 15.2566 15.7169C15.1039 15.9422 14.9003 16.1282 14.6621 16.2599C14.424 16.3915 14.1581 16.465 13.8862 16.4745C13.4341 16.4899 11.5926 16.5605 10.1834 16.6134L8.83159 16.6641C8.70512 16.6665 8.58264 16.6199 8.48977 16.534C8.40164 16.4505 8.35011 16.3356 8.34641 16.2142C8.34392 16.153 8.35355 16.0919 8.37474 16.0343C8.39593 15.9768 8.42827 15.924 8.46991 15.879C8.51168 15.8338 8.56208 15.7975 8.61814 15.7721C8.6742 15.7467 8.73478 15.7329 8.7963 15.7313C9.89896 15.6872 13.2202 15.5659 13.8553 15.5438C14.0488 15.537 14.2331 15.4597 14.3737 15.3265C14.5142 15.1933 14.6012 15.0133 14.6183 14.8205C14.6205 14.7984 14.6205 14.7742 14.6205 14.7499C14.6201 14.5669 14.5565 14.3896 14.4403 14.2481C14.3242 14.1067 14.1627 14.0097 13.9832 13.9736C13.3128 13.8391 11.5948 13.5524 10.3621 13.3495C9.66972 13.2321 9.01473 12.9533 8.45008 12.5358C6.14551 10.8311 3.93356 11.722 3.0338 12.2248L0 14.1927V20.0001C0.955648 19.3383 2.03896 18.8833 3.18057 18.6643C4.32219 18.4454 5.49695 18.4672 6.62964 18.7285L8.21631 19.0944C9.2093 19.3439 10.2585 19.2337 11.178 18.7834L20.4779 14.2273C20.5809 14.1763 20.6711 14.103 20.7422 14.0127C20.8132 13.9224 20.8631 13.8173 20.8884 13.7053C20.9136 13.5932 20.9135 13.4769 20.8881 13.3649C20.8626 13.2528 20.8125 13.1479 20.7413 13.0577C20.6682 12.9667 20.5754 12.8935 20.4699 12.8436C20.3644 12.7937 20.249 12.7684 20.1323 12.7696Z" fill="#1B0B3A"/>
<path d="M20.0996 2.04235H13.6377L10.3212 0.0945138C10.1625 0.00206604 9.97363 -0.0238401 9.79587 0.0224494C9.61811 0.068739 9.46588 0.183466 9.3724 0.34159L8.37369 2.04235H7.62222C7.40774 2.04259 7.20212 2.1279 7.05046 2.27956C6.8988 2.43122 6.81349 2.63685 6.81325 2.85133V9.57221C6.81336 9.78681 6.8986 9.99261 7.05026 10.1444C7.20193 10.2963 7.40762 10.3817 7.62222 10.3821H14.0854L17.4006 12.3294C17.5592 12.4222 17.7482 12.4483 17.9261 12.402C18.1039 12.3556 18.2562 12.2407 18.3494 12.0823L19.3474 10.3821H20.0996C20.3142 10.3817 20.5199 10.2963 20.6715 10.1444C20.8232 9.99261 20.9084 9.78682 20.9085 9.57222V2.85133C20.9083 2.63685 20.823 2.43122 20.6713 2.27956C20.5197 2.1279 20.314 2.04259 20.0996 2.04235ZM19.7706 7.46851C19.3604 7.61237 18.9879 7.84664 18.6805 8.15399C18.3732 8.46134 18.1389 8.83388 17.995 9.24404H9.72676C9.5829 8.83388 9.34863 8.46133 9.04128 8.15399C8.73394 7.84664 8.36139 7.61237 7.95123 7.46851V4.95591C8.36141 4.81205 8.73396 4.57776 9.04131 4.2704C9.34866 3.96303 9.58292 3.59046 9.72676 3.18028H17.995C18.1389 3.59046 18.3731 3.96303 18.6805 4.2704C18.9878 4.57777 19.3604 4.81206 19.7706 4.95591V7.46851Z" fill="#1B0B3A"/>
<path d="M10.3202 7.10527C10.8136 6.98882 11.1191 6.49449 11.0026 6.00117C10.8862 5.50785 10.3918 5.20234 9.89851 5.3188C9.40519 5.43526 9.09968 5.92958 9.21614 6.4229C9.33259 6.91622 9.82691 7.22173 10.3202 7.10527Z" fill="#1B0B3A"/>
<path d="M17.8232 7.10527C18.3165 6.98882 18.622 6.49449 18.5056 6.00117C18.3891 5.50785 17.8948 5.20234 17.4015 5.3188C16.9082 5.43526 16.6027 5.92958 16.7191 6.4229C16.8356 6.91622 17.3299 7.22173 17.8232 7.10527Z" fill="#1B0B3A"/>
<path d="M15.1775 7.52884C15.9046 6.80172 15.9046 5.62284 15.1775 4.89572C14.4503 4.16861 13.2715 4.16861 12.5443 4.89573C11.8172 5.62284 11.8172 6.80172 12.5443 7.52884C13.2715 8.25595 14.4503 8.25595 15.1775 7.52884Z" fill="#1B0B3A"/>
</svg>
