<svg width="196" height="196" viewBox="0 0 196 196" fill="none" xmlns="http://www.w3.org/2000/svg">
<g filter="url(#filter0_d_431_3395)">
<rect x="22" y="22" width="136" height="136" rx="18" fill="white" shape-rendering="crispEdges"/>
<circle cx="90" cy="90" r="47" stroke="#EADEFF" stroke-width="10"/>
<mask id="path-3-inside-1_431_3395" fill="white">
<path d="M90 43.0183C90 40.2468 92.2522 37.9749 95.0108 38.2419C105.239 39.232 114.987 43.2368 122.988 49.8035C132.288 57.4355 138.654 68.056 141.001 79.8553C143.348 91.6546 141.531 103.903 135.86 114.513C130.189 125.123 121.014 133.438 109.9 138.042C98.7848 142.646 86.4176 143.253 74.9052 139.761C63.3927 136.269 53.4473 128.893 46.7636 118.89C40.0798 108.887 37.0712 96.8756 38.2504 84.9031C39.265 74.6018 43.3258 64.8774 49.8583 56.9447C51.6202 54.8052 54.8192 54.8192 56.779 56.7789C58.7387 58.7387 58.7111 61.9 56.9991 64.0795C52.0829 70.3386 49.0256 77.8977 48.2387 85.8869C47.2871 95.5485 49.715 105.241 55.1088 113.314C60.5025 121.386 68.5283 127.338 77.8187 130.156C87.1091 132.975 97.0892 132.484 106.059 128.769C115.028 125.054 122.432 118.343 127.008 109.781C131.585 101.219 133.051 91.3353 131.157 81.8134C129.263 72.2915 124.126 63.7209 116.621 57.5619C110.416 52.4691 102.909 49.2858 95.0066 48.3363C92.2549 48.0057 90 45.7899 90 43.0183Z"/>
</mask>
<path d="M90 43.0183C90 40.2468 92.2522 37.9749 95.0108 38.2419C105.239 39.232 114.987 43.2368 122.988 49.8035C132.288 57.4355 138.654 68.056 141.001 79.8553C143.348 91.6546 141.531 103.903 135.86 114.513C130.189 125.123 121.014 133.438 109.9 138.042C98.7848 142.646 86.4176 143.253 74.9052 139.761C63.3927 136.269 53.4473 128.893 46.7636 118.89C40.0798 108.887 37.0712 96.8756 38.2504 84.9031C39.265 74.6018 43.3258 64.8774 49.8583 56.9447C51.6202 54.8052 54.8192 54.8192 56.779 56.7789C58.7387 58.7387 58.7111 61.9 56.9991 64.0795C52.0829 70.3386 49.0256 77.8977 48.2387 85.8869C47.2871 95.5485 49.715 105.241 55.1088 113.314C60.5025 121.386 68.5283 127.338 77.8187 130.156C87.1091 132.975 97.0892 132.484 106.059 128.769C115.028 125.054 122.432 118.343 127.008 109.781C131.585 101.219 133.051 91.3353 131.157 81.8134C129.263 72.2915 124.126 63.7209 116.621 57.5619C110.416 52.4691 102.909 49.2858 95.0066 48.3363C92.2549 48.0057 90 45.7899 90 43.0183Z" stroke="url(#paint0_linear_431_3395)" stroke-width="20" stroke-linejoin="round" mask="url(#path-3-inside-1_431_3395)"/>
<path d="M75.672 76.024C74.936 76.024 74.312 76.248 73.8 76.696C73.288 77.128 73.032 77.76 73.032 78.592C73.032 79.392 73.28 80.008 73.776 80.44C74.272 80.856 74.904 81.064 75.672 81.064C76.44 81.064 77.072 80.856 77.568 80.44C78.064 80.008 78.312 79.392 78.312 78.592C78.312 77.76 78.056 77.128 77.544 76.696C77.032 76.248 76.408 76.024 75.672 76.024ZM75.672 91.336C74.824 91.336 74.032 91.216 73.296 90.976C72.576 90.736 71.952 90.392 71.424 89.944C70.896 89.48 70.48 88.92 70.176 88.264C69.888 87.608 69.744 86.872 69.744 86.056C69.744 85 70.016 84.112 70.56 83.392C71.12 82.672 71.872 82.192 72.816 81.952V81.904C72.048 81.616 71.456 81.176 71.04 80.584C70.64 79.976 70.44 79.264 70.44 78.448C70.44 77.008 70.888 75.888 71.784 75.088C72.696 74.272 73.992 73.864 75.672 73.864C77.352 73.864 78.64 74.272 79.536 75.088C80.448 75.888 80.904 77.008 80.904 78.448C80.904 79.264 80.696 79.976 80.28 80.584C79.88 81.176 79.296 81.616 78.528 81.904V81.952C79.472 82.192 80.216 82.672 80.76 83.392C81.32 84.112 81.6 85 81.6 86.056C81.6 86.872 81.448 87.608 81.144 88.264C80.856 88.92 80.448 89.48 79.92 89.944C79.392 90.392 78.76 90.736 78.024 90.976C77.304 91.216 76.52 91.336 75.672 91.336ZM75.672 89.176C76.584 89.176 77.344 88.904 77.952 88.36C78.56 87.816 78.864 87.048 78.864 86.056C78.864 85.128 78.56 84.408 77.952 83.896C77.344 83.368 76.584 83.104 75.672 83.104C74.76 83.104 74 83.368 73.392 83.896C72.784 84.408 72.48 85.128 72.48 86.056C72.48 87.048 72.784 87.816 73.392 88.36C74 88.904 74.76 89.176 75.672 89.176ZM94.7439 91H83.2719C83.2879 89.608 83.6239 88.392 84.2799 87.352C84.9359 86.312 85.8319 85.408 86.9679 84.64C87.5119 84.24 88.0799 83.856 88.6719 83.488C89.2639 83.104 89.8079 82.696 90.3039 82.264C90.7999 81.832 91.2079 81.368 91.5279 80.872C91.8479 80.36 92.0159 79.776 92.0319 79.12C92.0319 78.816 91.9919 78.496 91.9119 78.16C91.8479 77.808 91.7119 77.488 91.5039 77.2C91.2959 76.896 91.0079 76.648 90.6399 76.456C90.2719 76.248 89.7919 76.144 89.1999 76.144C88.6559 76.144 88.1999 76.256 87.8319 76.48C87.4799 76.688 87.1919 76.984 86.9679 77.368C86.7599 77.736 86.5999 78.176 86.4879 78.688C86.3919 79.2 86.3359 79.752 86.3199 80.344H83.5839C83.5839 79.416 83.7039 78.56 83.9439 77.776C84.1999 76.976 84.5759 76.288 85.0719 75.712C85.5679 75.136 86.1679 74.688 86.8719 74.368C87.5919 74.032 88.4239 73.864 89.3679 73.864C90.3919 73.864 91.2479 74.032 91.9359 74.368C92.6239 74.704 93.1759 75.128 93.5919 75.64C94.0239 76.152 94.3279 76.712 94.5039 77.32C94.6799 77.912 94.7679 78.48 94.7679 79.024C94.7679 79.696 94.6639 80.304 94.4559 80.848C94.2479 81.392 93.9679 81.896 93.6159 82.36C93.2639 82.808 92.8639 83.224 92.4159 83.608C91.9679 83.992 91.5039 84.352 91.0239 84.688C90.5439 85.024 90.0639 85.344 89.5839 85.648C89.1039 85.952 88.6559 86.256 88.2399 86.56C87.8399 86.864 87.4879 87.184 87.1839 87.52C86.8799 87.84 86.6719 88.184 86.5599 88.552H94.7439V91ZM102.344 73.864C103.544 73.864 104.52 74.144 105.272 74.704C106.04 75.248 106.632 75.952 107.048 76.816C107.48 77.664 107.768 78.6 107.912 79.624C108.072 80.648 108.152 81.64 108.152 82.6C108.152 83.56 108.072 84.552 107.912 85.576C107.768 86.6 107.48 87.544 107.048 88.408C106.632 89.256 106.04 89.96 105.272 90.52C104.52 91.064 103.544 91.336 102.344 91.336C101.144 91.336 100.16 91.064 99.3919 90.52C98.6399 89.96 98.0479 89.256 97.6159 88.408C97.1999 87.544 96.9119 86.6 96.7519 85.576C96.6079 84.552 96.5359 83.56 96.5359 82.6C96.5359 81.64 96.6079 80.648 96.7519 79.624C96.9119 78.6 97.1999 77.664 97.6159 76.816C98.0479 75.952 98.6399 75.248 99.3919 74.704C100.16 74.144 101.144 73.864 102.344 73.864ZM102.344 89.056C102.936 89.056 103.432 88.888 103.832 88.552C104.232 88.2 104.544 87.736 104.768 87.16C105.008 86.568 105.176 85.88 105.272 85.096C105.368 84.312 105.416 83.48 105.416 82.6C105.416 81.72 105.368 80.896 105.272 80.128C105.176 79.344 105.008 78.656 104.768 78.064C104.544 77.472 104.232 77.008 103.832 76.672C103.432 76.32 102.936 76.144 102.344 76.144C101.736 76.144 101.232 76.32 100.832 76.672C100.448 77.008 100.136 77.472 99.8959 78.064C99.6719 78.656 99.5119 79.344 99.4159 80.128C99.3199 80.896 99.2719 81.72 99.2719 82.6C99.2719 83.48 99.3199 84.312 99.4159 85.096C99.5119 85.88 99.6719 86.568 99.8959 87.16C100.136 87.736 100.448 88.2 100.832 88.552C101.232 88.888 101.736 89.056 102.344 89.056Z" fill="#1B0B3A"/>
<path d="M69.78 100.86H70.73V107.2H74.51V108H69.78V100.86ZM75.8166 105.42C75.8166 105.733 75.8566 106.013 75.9366 106.26C76.0233 106.5 76.14 106.703 76.2866 106.87C76.4333 107.03 76.6033 107.153 76.7966 107.24C76.9966 107.327 77.2066 107.37 77.4266 107.37C77.6466 107.37 77.8533 107.327 78.0466 107.24C78.2466 107.153 78.42 107.03 78.5666 106.87C78.7133 106.703 78.8266 106.5 78.9066 106.26C78.9933 106.013 79.0366 105.733 79.0366 105.42C79.0366 105.107 78.9933 104.83 78.9066 104.59C78.8266 104.343 78.7133 104.137 78.5666 103.97C78.42 103.803 78.2466 103.677 78.0466 103.59C77.8533 103.503 77.6466 103.46 77.4266 103.46C77.2066 103.46 76.9966 103.503 76.7966 103.59C76.6033 103.677 76.4333 103.803 76.2866 103.97C76.14 104.137 76.0233 104.343 75.9366 104.59C75.8566 104.83 75.8166 105.107 75.8166 105.42ZM74.9166 105.42C74.9166 105.04 74.97 104.687 75.0766 104.36C75.1833 104.027 75.3433 103.74 75.5566 103.5C75.77 103.253 76.0333 103.06 76.3466 102.92C76.66 102.78 77.02 102.71 77.4266 102.71C77.84 102.71 78.2 102.78 78.5066 102.92C78.82 103.06 79.0833 103.253 79.2966 103.5C79.51 103.74 79.67 104.027 79.7766 104.36C79.8833 104.687 79.9366 105.04 79.9366 105.42C79.9366 105.8 79.8833 106.153 79.7766 106.48C79.67 106.807 79.51 107.093 79.2966 107.34C79.0833 107.58 78.82 107.77 78.5066 107.91C78.2 108.043 77.84 108.11 77.4266 108.11C77.02 108.11 76.66 108.043 76.3466 107.91C76.0333 107.77 75.77 107.58 75.5566 107.34C75.3433 107.093 75.1833 106.807 75.0766 106.48C74.97 106.153 74.9166 105.8 74.9166 105.42ZM86.0588 108H85.1588L84.1088 103.89H84.0888L83.0488 108H82.1288L80.4688 102.83H81.4088L82.5788 107.06H82.5988L83.6388 102.83H84.5688L85.6488 107.06H85.6688L86.8288 102.83H87.7088L86.0588 108ZM91.4402 100.86H94.8002C95.4802 100.86 96.0102 101.027 96.3902 101.36C96.7768 101.693 96.9702 102.15 96.9702 102.73C96.9702 103.163 96.8702 103.543 96.6702 103.87C96.4768 104.197 96.1635 104.42 95.7302 104.54V104.56C95.9368 104.6 96.1035 104.667 96.2302 104.76C96.3635 104.853 96.4668 104.967 96.5402 105.1C96.6202 105.227 96.6768 105.37 96.7102 105.53C96.7502 105.69 96.7802 105.857 96.8002 106.03C96.8135 106.203 96.8235 106.38 96.8302 106.56C96.8368 106.74 96.8535 106.917 96.8802 107.09C96.9068 107.263 96.9435 107.43 96.9902 107.59C97.0435 107.743 97.1202 107.88 97.2202 108H96.1602C96.0935 107.927 96.0468 107.827 96.0202 107.7C96.0002 107.573 95.9868 107.433 95.9802 107.28C95.9735 107.12 95.9668 106.95 95.9602 106.77C95.9535 106.59 95.9335 106.413 95.9002 106.24C95.8735 106.067 95.8402 105.903 95.8002 105.75C95.7602 105.59 95.6968 105.453 95.6102 105.34C95.5235 105.22 95.4102 105.127 95.2702 105.06C95.1302 104.987 94.9435 104.95 94.7102 104.95H92.3902V108H91.4402V100.86ZM94.3702 104.15C94.5902 104.15 94.8002 104.133 95.0002 104.1C95.2002 104.067 95.3735 104.003 95.5202 103.91C95.6735 103.81 95.7935 103.68 95.8802 103.52C95.9735 103.353 96.0202 103.14 96.0202 102.88C96.0202 102.52 95.9202 102.227 95.7202 102C95.5202 101.773 95.1968 101.66 94.7502 101.66H92.3902V104.15H94.3702ZM99.0459 101.9H98.1959V100.86H99.0459V101.9ZM98.1959 102.83H99.0459V108H98.1959V102.83ZM100.883 106.37C100.889 106.557 100.933 106.717 101.013 106.85C101.093 106.977 101.196 107.08 101.323 107.16C101.456 107.233 101.603 107.287 101.763 107.32C101.929 107.353 102.099 107.37 102.273 107.37C102.406 107.37 102.546 107.36 102.693 107.34C102.839 107.32 102.973 107.283 103.093 107.23C103.219 107.177 103.323 107.1 103.403 107C103.483 106.893 103.523 106.76 103.523 106.6C103.523 106.38 103.439 106.213 103.273 106.1C103.106 105.987 102.896 105.897 102.643 105.83C102.396 105.757 102.126 105.693 101.833 105.64C101.539 105.58 101.266 105.5 101.013 105.4C100.766 105.293 100.559 105.147 100.393 104.96C100.226 104.773 100.143 104.513 100.143 104.18C100.143 103.92 100.199 103.697 100.313 103.51C100.433 103.323 100.583 103.173 100.763 103.06C100.949 102.94 101.156 102.853 101.383 102.8C101.616 102.74 101.846 102.71 102.073 102.71C102.366 102.71 102.636 102.737 102.883 102.79C103.129 102.837 103.346 102.923 103.533 103.05C103.726 103.17 103.879 103.337 103.993 103.55C104.106 103.757 104.173 104.017 104.193 104.33H103.343C103.329 104.163 103.286 104.027 103.213 103.92C103.139 103.807 103.046 103.717 102.933 103.65C102.819 103.583 102.693 103.537 102.553 103.51C102.419 103.477 102.283 103.46 102.143 103.46C102.016 103.46 101.886 103.47 101.753 103.49C101.626 103.51 101.509 103.547 101.403 103.6C101.296 103.647 101.209 103.713 101.143 103.8C101.076 103.88 101.043 103.987 101.043 104.12C101.043 104.267 101.093 104.39 101.193 104.49C101.299 104.583 101.433 104.663 101.593 104.73C101.753 104.79 101.933 104.843 102.133 104.89C102.333 104.93 102.533 104.973 102.733 105.02C102.946 105.067 103.153 105.123 103.353 105.19C103.559 105.257 103.739 105.347 103.893 105.46C104.053 105.567 104.179 105.703 104.273 105.87C104.373 106.037 104.423 106.243 104.423 106.49C104.423 106.803 104.356 107.063 104.223 107.27C104.096 107.477 103.926 107.643 103.713 107.77C103.506 107.897 103.269 107.983 103.003 108.03C102.743 108.083 102.483 108.11 102.223 108.11C101.936 108.11 101.663 108.08 101.403 108.02C101.143 107.96 100.913 107.863 100.713 107.73C100.513 107.59 100.353 107.41 100.233 107.19C100.113 106.963 100.046 106.69 100.033 106.37H100.883ZM105.413 100.86H106.263V105.09L108.623 102.83H109.763L107.713 104.71L109.913 108H108.833L107.063 105.3L106.263 106.04V108H105.413V100.86Z" fill="#7756FE"/>
</g>
<defs>
<filter id="filter0_d_431_3395" x="0" y="0" width="196" height="196" filterUnits="userSpaceOnUse" color-interpolation-filters="sRGB">
<feFlood flood-opacity="0" result="BackgroundImageFix"/>
<feColorMatrix in="SourceAlpha" type="matrix" values="0 0 0 0 0 0 0 0 0 0 0 0 0 0 0 0 0 0 127 0" result="hardAlpha"/>
<feOffset dx="8" dy="8"/>
<feGaussianBlur stdDeviation="15"/>
<feComposite in2="hardAlpha" operator="out"/>
<feColorMatrix type="matrix" values="0 0 0 0 0.466667 0 0 0 0 0.337255 0 0 0 0 0.996078 0 0 0 0.12 0"/>
<feBlend mode="normal" in2="BackgroundImageFix" result="effect1_dropShadow_431_3395"/>
<feBlend mode="normal" in="SourceGraphic" in2="effect1_dropShadow_431_3395" result="shape"/>
</filter>
<linearGradient id="paint0_linear_431_3395" x1="149.5" y1="38" x2="50" y2="64" gradientUnits="userSpaceOnUse">
<stop stop-color="#1B0B3A"/>
<stop offset="1" stop-color="#7756FE"/>
</linearGradient>
</defs>
</svg>
