<svg width="20" height="20" viewBox="0 0 20 20" fill="none" xmlns="http://www.w3.org/2000/svg">
<path d="M19.2857 12.8571H13.5714C13.1766 12.8571 12.8571 13.177 12.8571 13.5714V15.7143H12.1429V10.2191C12.3766 10.1064 12.6009 9.977 12.8136 9.82943L13.2248 10.0687C13.3891 10.165 13.5858 10.1911 13.7689 10.1413C13.9526 10.0921 14.1093 9.97143 14.2038 9.80614L15.6201 7.33193C15.8148 6.9915 15.699 6.55764 15.3599 6.36021L14.9452 6.1185C14.9568 5.98286 14.9624 5.84857 14.9624 5.71429C14.9624 5.58 14.9568 5.44571 14.9453 5.31007L15.36 5.06836C15.699 4.87093 15.8148 4.43707 15.6202 4.09664L14.2039 1.62243C14.1094 1.45714 13.9527 1.33643 13.7689 1.28729C13.5865 1.23843 13.3894 1.26357 13.2249 1.35986L12.8136 1.59914C12.5971 1.44886 12.3689 1.31629 12.1304 1.20221V0.714286C12.1304 0.319857 11.8106 0 11.4161 0H8.58414C8.18971 0 7.86986 0.319857 7.86986 0.714286V1.20221C7.63129 1.31629 7.40321 1.44879 7.18664 1.59914L6.77543 1.35986C6.61114 1.26357 6.41407 1.23814 6.23136 1.28729C6.04757 1.33643 5.89093 1.45714 5.79643 1.62243L4.38021 4.09671C4.18529 4.43707 4.30143 4.87093 4.64043 5.06836L5.05479 5.31007C5.04321 5.44571 5.03764 5.58 5.03764 5.71429C5.03764 5.84857 5.04321 5.98286 5.05471 6.1185L4.64036 6.36021C4.30136 6.55764 4.18521 6.9915 4.38014 7.33193L5.79614 9.80614C5.89064 9.97143 6.04729 10.0921 6.23107 10.1413C6.4145 10.1915 6.61157 10.165 6.77514 10.0687L7.18636 9.82943C7.40293 9.97971 7.63107 10.1123 7.86957 10.2264V10.6521C7.86771 10.6736 7.85714 10.6922 7.85714 10.7143V15.7143H7.14286V13.5714C7.14286 13.177 6.82336 12.8571 6.42857 12.8571H0.714286C0.3195 12.8571 0 13.177 0 13.5714V19.2857C0 19.6801 0.3195 20 0.714286 20H6.42857C6.82336 20 7.14286 19.6801 7.14286 19.2857V17.1429H8.57143C8.96621 17.1429 9.28571 16.823 9.28571 16.4286V11.4286H10.7143V16.4286C10.7143 16.823 11.0338 17.1429 11.4286 17.1429H12.8571V19.2857C12.8571 19.6801 13.1766 20 13.5714 20H19.2857C19.6805 20 20 19.6801 20 19.2857V13.5714C20 13.177 19.6805 12.8571 19.2857 12.8571ZM5.66336 14.8266L3.5205 18.3981C3.464 18.4922 3.36707 18.5554 3.25821 18.5686C3.24357 18.5704 3.22893 18.5714 3.21429 18.5714C3.12014 18.5714 3.02943 18.5341 2.96179 18.4668L1.53321 17.0382C1.39371 16.8987 1.39371 16.6727 1.53321 16.5332C1.67271 16.3937 1.89871 16.3937 2.03821 16.5332L3.14314 17.6385L5.05093 14.4591C5.15279 14.2899 5.37386 14.2366 5.54057 14.3366C5.71007 14.4381 5.76521 14.6575 5.66336 14.8266ZM10.0443 7.14286C9.25657 7.14286 8.61572 6.502 8.61572 5.71429C8.61572 4.92657 9.25657 4.28571 10.0443 4.28571C10.832 4.28571 11.4729 4.92657 11.4729 5.71429C11.4729 6.502 10.8321 7.14286 10.0443 7.14286ZM18.8239 18.3189C18.9634 18.4584 18.9634 18.6844 18.8239 18.8239C18.7542 18.8937 18.6628 18.9286 18.5714 18.9286C18.4801 18.9286 18.3886 18.8937 18.3189 18.8239L16.4286 16.9336L14.5382 18.8239C14.4685 18.8937 14.3771 18.9286 14.2857 18.9286C14.1944 18.9286 14.1029 18.8937 14.0332 18.8239C13.8937 18.6844 13.8937 18.4584 14.0332 18.3189L15.9236 16.4286L14.0332 14.5382C13.8937 14.3987 13.8937 14.1727 14.0332 14.0332C14.1727 13.8937 14.3987 13.8937 14.5382 14.0332L16.4286 15.9236L18.3189 14.0332C18.4584 13.8937 18.6844 13.8937 18.8239 14.0332C18.9634 14.1727 18.9634 14.3987 18.8239 14.5382L16.9336 16.4286L18.8239 18.3189Z" fill="#1B0B3A"/>
</svg>
