<svg width="20" height="20" viewBox="0 0 20 20" fill="none" xmlns="http://www.w3.org/2000/svg">
<path d="M5.36641 3.19505C5.59113 2.26829 6.90919 2.26829 7.13392 3.19505L7.75227 5.74509C7.8325 6.07597 8.09084 6.33431 8.42172 6.41454L10.9718 7.03289C11.8985 7.25762 11.8985 8.57568 10.9718 8.8004L8.42172 9.41875C8.09084 9.49898 7.8325 9.75733 7.75227 10.0882L7.13392 12.6382C6.90919 13.565 5.59113 13.565 5.36641 12.6382L4.74806 10.0882C4.66783 9.75733 4.40948 9.49898 4.0786 9.41875L1.52857 8.8004C0.601807 8.57568 0.601806 7.25762 1.52856 7.03289L4.0786 6.41454C4.40948 6.33431 4.66783 6.07597 4.74806 5.74509L5.36641 3.19505Z" fill="#1B0B3A"/>
<path d="M12.7896 12.0944C12.9279 11.5241 13.7391 11.5241 13.8773 12.0944L14.2579 13.6636C14.3072 13.8673 14.4662 14.0262 14.6698 14.0756L16.2391 14.4561C16.8094 14.5944 16.8094 15.4055 16.2391 15.5438L14.6698 15.9244C14.4662 15.9737 14.3072 16.1327 14.2579 16.3363L13.8773 17.9056C13.7391 18.4759 12.9279 18.4759 12.7896 17.9056L12.4091 16.3363C12.3598 16.1327 12.2008 15.9737 11.9972 15.9244L10.4279 15.5438C9.85758 15.4055 9.85758 14.5944 10.4279 14.4561L11.9972 14.0756C12.2008 14.0262 12.3598 13.8673 12.4091 13.6636L12.7896 12.0944Z" fill="#1B0B3A"/>
<path d="M15.4766 3.09318C15.5673 2.71891 16.0996 2.71891 16.1904 3.09318L16.4401 4.123C16.4725 4.25663 16.5768 4.36096 16.7105 4.39336L17.7403 4.64308C18.1146 4.73383 18.1146 5.26613 17.7403 5.35688L16.7105 5.6066C16.5768 5.639 16.4725 5.74333 16.4401 5.87696L16.1904 6.90678C16.0996 7.28105 15.5673 7.28105 15.4766 6.90678L15.2269 5.87696C15.1945 5.74333 15.0901 5.639 14.9565 5.6066L13.9267 5.35688C13.5524 5.26613 13.5524 4.73383 13.9267 4.64308L14.9565 4.39336C15.0901 4.36096 15.1945 4.25663 15.2269 4.123L15.4766 3.09318Z" fill="#1B0B3A"/>
<path fill-rule="evenodd" clip-rule="evenodd" d="M15.8335 3.27589L15.6297 4.11641C15.5482 4.45238 15.2859 4.7147 14.9499 4.79617L14.1094 4.99998L14.9499 5.20379C15.2859 5.28526 15.5482 5.54758 15.6297 5.88355L15.8335 6.72407L16.0373 5.88355C16.1188 5.54758 16.3811 5.28526 16.7171 5.20379L17.5576 4.99998L16.7171 4.79617C16.3811 4.7147 16.1188 4.45238 16.0373 4.11641L15.8335 3.27589ZM16.2414 2.82078C16.1377 2.39305 15.5293 2.39305 15.4256 2.82078L15.1402 3.99772C15.1032 4.15044 14.984 4.26967 14.8312 4.3067L13.6543 4.59209C13.2266 4.69581 13.2266 5.30415 13.6543 5.40787L14.8312 5.69326C14.984 5.73029 15.1032 5.84952 15.1402 6.00224L15.4256 7.17918C15.5293 7.60691 16.1377 7.60691 16.2414 7.17918L16.5268 6.00224C16.5638 5.84952 16.683 5.73029 16.8358 5.69326L18.0127 5.40787C18.4404 5.30415 18.4404 4.69581 18.0127 4.59209L16.8358 4.3067C16.683 4.26967 16.5638 4.15044 16.5268 3.99772L16.2414 2.82078Z" fill="#1B0B3A"/>
<path d="M5.8335 19.1666C5.37326 19.1666 5.00016 18.7936 5.00016 18.3333C5.00016 17.8731 5.37326 17.5 5.8335 17.5C6.29373 17.5 6.66683 17.8731 6.66683 18.3333C6.66683 18.7936 6.29373 19.1666 5.8335 19.1666Z" fill="#1B0B3A"/>
<path d="M1.66683 15.8333C1.20659 15.8333 0.833496 15.4602 0.833496 15C0.833496 14.5397 1.20659 14.1666 1.66683 14.1666C2.12707 14.1666 2.50016 14.5397 2.50016 15C2.50016 15.4602 2.12707 15.8333 1.66683 15.8333Z" fill="#1B0B3A"/>
<path d="M10.8335 2.49998C10.3733 2.49998 10.0002 2.12688 10.0002 1.66665C10.0002 1.20641 10.3733 0.833313 10.8335 0.833313C11.2937 0.833313 11.6668 1.20641 11.6668 1.66665C11.6668 2.12688 11.2937 2.49998 10.8335 2.49998Z" fill="#1B0B3A"/>
<path d="M18.3335 11.6666C17.8733 11.6666 17.5002 11.2936 17.5002 10.8333C17.5002 10.3731 17.8733 9.99998 18.3335 9.99998C18.7937 9.99998 19.1668 10.3731 19.1668 10.8333C19.1668 11.2936 18.7937 11.6666 18.3335 11.6666Z" fill="#1B0B3A"/>
</svg>
