<svg width="20" height="15" viewBox="0 0 20 15" fill="none" xmlns="http://www.w3.org/2000/svg">
<path d="M13.3767 0.0965034V0.0932617H14.2207L14.529 0.154854C14.7346 0.19484 14.9213 0.247242 15.089 0.312075C15.2567 0.376909 15.4191 0.452554 15.5759 0.538993C15.7328 0.625432 15.8751 0.713509 16.0028 0.80319C16.1294 0.891801 16.243 0.98581 16.3437 1.08522C16.4432 1.18571 16.5985 1.21164 16.8095 1.16302C17.0205 1.11439 17.2477 1.04685 17.4912 0.960412C17.7346 0.873972 17.9754 0.776722 18.2135 0.66866C18.4515 0.560599 18.5965 0.491989 18.6485 0.462813C18.6993 0.432569 18.7264 0.41636 18.7296 0.414188L18.7328 0.409326L18.7491 0.401221L18.7653 0.393117L18.7815 0.385013L18.7978 0.376909L18.801 0.372046L18.8059 0.368805L18.8108 0.365563L18.814 0.3607L18.8302 0.355838L18.8465 0.352596L18.8432 0.376909L18.8383 0.401221L18.8302 0.425534L18.8221 0.449847L18.814 0.466055L18.8059 0.482264L18.7978 0.506576C18.7924 0.522785 18.787 0.54439 18.7815 0.57141C18.7761 0.598429 18.7247 0.706474 18.6273 0.895578C18.53 1.08468 18.4082 1.27648 18.2621 1.47098C18.1161 1.66548 17.9851 1.81242 17.8694 1.91185C17.7525 2.01234 17.6751 2.08257 17.6373 2.12255C17.5994 2.16361 17.5534 2.20142 17.4993 2.23601L17.4181 2.2895L17.4019 2.29761L17.3857 2.30571L17.3824 2.31057L17.3776 2.31381L17.3727 2.31706L17.3694 2.32192L17.3532 2.33002L17.337 2.33813L17.3338 2.34299L17.3289 2.34623L17.324 2.34947L17.3208 2.35433L17.3175 2.3592L17.3126 2.36244L17.3078 2.36568L17.3045 2.37054H17.3857L17.8401 2.27329C18.1431 2.20846 18.4326 2.13012 18.7085 2.03827L19.1467 1.8924L19.1954 1.87619L19.2198 1.86808L19.236 1.85998L19.2522 1.85187L19.2685 1.84377L19.2847 1.83567L19.3171 1.8308L19.3496 1.82756V1.85998L19.3415 1.86322L19.3334 1.86808L19.3301 1.87294L19.3253 1.87619L19.3204 1.87943L19.3171 1.88429L19.3139 1.88915L19.309 1.8924L19.3042 1.89564L19.3009 1.9005L19.2977 1.90536L19.2928 1.9086L19.2847 1.92481L19.2766 1.94102L19.2717 1.94426C19.2695 1.9475 19.2008 2.03934 19.0656 2.2198C18.9303 2.40134 18.8573 2.49318 18.8465 2.49535C18.8356 2.49859 18.8205 2.5148 18.801 2.54397C18.7826 2.57422 18.6679 2.69471 18.4569 2.90542C18.2459 3.11613 18.0393 3.3036 17.8369 3.46785C17.6335 3.63318 17.5307 3.83632 17.5285 4.07729C17.5253 4.31717 17.5128 4.5884 17.4912 4.89095C17.4695 5.19351 17.429 5.52037 17.3694 5.87156C17.3099 6.22275 17.218 6.61985 17.0935 7.06288C16.9691 7.5059 16.8176 7.93813 16.6391 8.35955C16.4605 8.78097 16.2739 9.15916 16.0791 9.49414C15.8843 9.82912 15.7058 10.1128 15.5435 10.3451C15.3812 10.5774 15.2162 10.7962 15.0484 11.0015C14.8807 11.2068 14.6687 11.4381 14.4122 11.6952C14.1547 11.9513 14.014 12.0918 13.9902 12.1167C13.9653 12.1404 13.8593 12.229 13.6721 12.3825C13.486 12.537 13.2858 12.6915 13.0715 12.846C12.8584 12.9995 12.6625 13.1275 12.484 13.2302C12.3054 13.3328 12.0901 13.4501 11.838 13.5819C11.587 13.7148 11.3153 13.838 11.0232 13.9515C10.731 14.0649 10.4226 14.1703 10.098 14.2675C9.77341 14.3648 9.45962 14.4404 9.15664 14.4944C8.85368 14.5485 8.51012 14.5944 8.12598 14.6322L7.54979 14.6889V14.697H6.49479V14.6889L6.35682 14.6808C6.26486 14.6754 6.18911 14.67 6.12959 14.6646C6.07009 14.6592 5.84555 14.6295 5.45601 14.5755C5.06647 14.5215 4.7608 14.4674 4.53897 14.4134C4.31716 14.3594 3.98712 14.2567 3.54889 14.1054C3.11066 13.9542 2.73572 13.8012 2.42409 13.6467C2.11355 13.4933 1.91878 13.396 1.83978 13.355C1.76187 13.315 1.67423 13.2653 1.57684 13.2059L1.43076 13.1167L1.42753 13.1119L1.42265 13.1086L1.41778 13.1054L1.41453 13.1005L1.3983 13.0924L1.38207 13.0843L1.37884 13.0794L1.37396 13.0762L1.36909 13.073L1.36584 13.0681L1.36261 13.0632L1.35772 13.06H1.34961V13.0276L1.36584 13.0308L1.38207 13.0357L1.45511 13.0438C1.5038 13.0492 1.63636 13.0573 1.85277 13.0681C2.06919 13.0789 2.29911 13.0789 2.54258 13.0681C2.78604 13.0573 3.03492 13.033 3.28919 12.9952C3.54348 12.9573 3.84375 12.8925 4.19001 12.8007C4.53627 12.7088 4.8544 12.5997 5.1444 12.4732C5.4333 12.3457 5.63888 12.2507 5.76117 12.188C5.88235 12.1264 6.06738 12.0118 6.31625 11.8444L6.68956 11.5931L6.6928 11.5883L6.69767 11.585L6.70256 11.5818L6.70579 11.5769L6.70903 11.5721L6.7139 11.5688L6.71879 11.5656L6.72202 11.5607L6.73825 11.5558L6.75448 11.5526L6.75772 11.5364L6.76259 11.5202L6.76748 11.5169L6.77071 11.5121L6.64086 11.504C6.5543 11.4986 6.47044 11.4932 6.38928 11.4878C6.30813 11.4824 6.18099 11.4581 6.00786 11.4148C5.83474 11.3716 5.64809 11.3068 5.4479 11.2203C5.24772 11.1339 5.05295 11.0312 4.86359 10.9124C4.67424 10.7935 4.53735 10.6946 4.45295 10.6158C4.36963 10.5379 4.26142 10.4277 4.12833 10.2851C3.99632 10.1414 3.88162 9.99389 3.78424 9.84262C3.68685 9.69135 3.5938 9.51681 3.50508 9.31909L3.37035 9.02409L3.36223 8.99978L3.35412 8.97547L3.34925 8.95926L3.346 8.94305L3.37035 8.94629L3.3947 8.95116L3.57323 8.97547C3.69227 8.99168 3.87893 8.99708 4.1332 8.99168C4.38749 8.98628 4.56332 8.97547 4.6607 8.95926C4.75809 8.94305 4.8176 8.93224 4.83924 8.92684L4.8717 8.91874L4.91228 8.91064L4.95286 8.90253L4.9561 8.89767L4.96097 8.89443L4.96586 8.89119L4.96909 8.88632L4.93662 8.87822L4.90416 8.87012L4.8717 8.86201L4.83924 8.85391L4.80678 8.8458C4.78514 8.8404 4.74728 8.82959 4.69316 8.81339C4.63906 8.79718 4.49299 8.73774 4.25493 8.63509C4.01689 8.53244 3.82752 8.43249 3.68685 8.33524C3.54583 8.23771 3.41137 8.13104 3.28433 8.01593C3.15772 7.89923 3.01869 7.74903 2.86719 7.56534C2.71571 7.38165 2.58046 7.16823 2.46142 6.92511C2.3424 6.68198 2.25313 6.44966 2.19361 6.22814C2.13433 6.00793 2.09522 5.78278 2.07677 5.5555L2.04754 5.21512L2.06377 5.21836L2.08 5.22322L2.09623 5.23133L2.11246 5.23943L2.12869 5.24754L2.14492 5.25564L2.3965 5.3691C2.56423 5.44474 2.77252 5.50958 3.02139 5.5636C3.27027 5.61762 3.41904 5.64735 3.46773 5.65275L3.54077 5.66085H3.68685L3.68362 5.65599L3.67873 5.65275L3.67387 5.6495L3.67062 5.64464L3.66739 5.63978L3.6625 5.63654L3.65763 5.6333L3.65439 5.62843L3.63816 5.62033L3.62193 5.61222L3.6187 5.60736L3.61381 5.60412L3.60894 5.60088L3.6057 5.59602L3.58947 5.58791L3.57323 5.57981L3.57 5.57495C3.56676 5.57277 3.52022 5.5382 3.4304 5.47121C3.34167 5.40314 3.24862 5.31508 3.15123 5.20701C3.05385 5.09895 2.95646 4.98549 2.85908 4.86664C2.76151 4.74751 2.67461 4.62005 2.59938 4.48574C2.52365 4.35068 2.44357 4.17885 2.35917 3.97031C2.27585 3.76285 2.21255 3.55376 2.16927 3.34305C2.126 3.13234 2.10165 2.92434 2.09623 2.71902C2.09082 2.51371 2.09623 2.33813 2.11246 2.19225C2.12869 2.04637 2.16115 1.88158 2.20984 1.69789C2.25854 1.5142 2.32888 1.3197 2.42084 1.11439L2.55881 0.806432L2.56692 0.782119L2.57504 0.757806L2.57992 0.754565L2.58315 0.749702L2.5864 0.74484L2.59127 0.741598L2.59615 0.74484L2.59938 0.749702L2.60263 0.754565L2.6075 0.757806L2.61238 0.761048L2.61561 0.765911L2.61886 0.770773L2.62373 0.774015L2.63185 0.790223L2.63996 0.806432L2.64485 0.809673L2.64808 0.814536L2.86719 1.05766C3.01327 1.21975 3.1864 1.40075 3.38658 1.60064C3.58677 1.80054 3.69768 1.90428 3.71931 1.91185C3.74096 1.92048 3.768 1.94533 3.80047 1.9864C3.83293 2.02639 3.94114 2.12202 4.12508 2.27329C4.30904 2.42457 4.5498 2.60017 4.84736 2.80007C5.14493 2.99996 5.47495 3.19717 5.83744 3.39167C6.19994 3.58617 6.58948 3.76176 7.00606 3.91845C7.42265 4.07513 7.71481 4.17778 7.88252 4.22641C8.05025 4.27503 8.33699 4.33716 8.74276 4.4128C9.14853 4.48845 9.45422 4.53707 9.6598 4.55868C9.86539 4.58028 10.0061 4.59272 10.0818 4.59596L10.1954 4.5992L10.1922 4.57489L10.1873 4.55057L10.1548 4.34797C10.1332 4.2129 10.1224 4.0238 10.1224 3.78067C10.1224 3.53755 10.1413 3.31334 10.1792 3.10803C10.2171 2.90271 10.2739 2.69471 10.3496 2.484C10.4254 2.27329 10.4995 2.10417 10.572 1.97668C10.6456 1.85025 10.7419 1.706 10.8609 1.54391C10.9799 1.38183 11.1341 1.21435 11.3235 1.04145C11.5128 0.868559 11.7292 0.714579 11.9727 0.579514C12.2162 0.444449 12.4407 0.341785 12.6463 0.271554C12.8519 0.201323 13.025 0.155389 13.1657 0.133783C13.3063 0.112177 13.3767 0.0997451 13.3767 0.0965034Z" fill="#1B0B3A"/>
</svg>
