<svg width="14" height="14" viewBox="0 0 14 14" fill="none" xmlns="http://www.w3.org/2000/svg">
<path d="M9.625 5.03125V10.2812C9.625 10.5133 9.53281 10.7359 9.36872 10.9C9.20462 11.0641 8.98206 11.1562 8.75 11.1562H2.625C2.04484 11.1562 1.48844 10.9258 1.0782 10.5155C0.667968 10.1053 0.4375 9.54891 0.4375 8.96875V3.71875C0.4375 3.48669 0.529687 3.26413 0.693782 3.10003C0.857876 2.93594 1.08044 2.84375 1.3125 2.84375H7.4375C7.72477 2.84375 8.00922 2.90033 8.27462 3.01026C8.54002 3.1202 8.78117 3.28133 8.9843 3.48445C9.18742 3.68758 9.34855 3.92873 9.45849 4.19413C9.56842 4.45953 9.625 4.74398 9.625 5.03125ZM13.3438 3.99758C13.2778 3.95751 13.2022 3.93632 13.125 3.93632C13.0478 3.93632 12.9722 3.95751 12.9062 3.99758L10.7188 5.24475C10.6517 5.28347 10.5961 5.33929 10.5577 5.40652C10.5192 5.47375 10.4993 5.54998 10.5 5.62742V8.37258C10.4993 8.45002 10.5192 8.52625 10.5577 8.59348C10.5961 8.66071 10.6517 8.71653 10.7188 8.75525L12.9062 10.0024C12.9729 10.0406 13.0482 10.0613 13.125 10.0625C13.2019 10.0621 13.2774 10.0413 13.3438 10.0024C13.4108 9.96498 13.4665 9.91017 13.505 9.84375C13.5435 9.77733 13.5633 9.70176 13.5625 9.625V4.375C13.5634 4.29822 13.5435 4.22263 13.505 4.1562C13.4665 4.08977 13.4108 4.03497 13.3438 3.99758Z" fill="#7756FE"/>
</svg>
