<svg width="22" height="15" viewBox="0 0 22 15" fill="none" xmlns="http://www.w3.org/2000/svg">
<path d="M11.7884 14.3747L7.72617 14.2988C6.41092 14.2723 5.0924 14.3251 3.80294 14.051C1.84138 13.6415 1.70241 11.6336 1.557 9.94939C1.35664 7.58155 1.43421 5.17074 1.81232 2.82266C2.02577 1.50514 2.8658 0.718973 4.16488 0.633423C8.55023 0.322948 12.9647 0.359743 17.3404 0.50459C17.8025 0.517869 18.2678 0.590445 18.7235 0.673056C20.9728 1.07597 21.0276 3.35137 21.1734 5.26683C21.3189 7.20205 21.2575 9.14721 20.9795 11.0693C20.7566 12.6607 20.3299 13.9952 18.5296 14.124C16.2738 14.2925 14.0698 14.4281 11.8077 14.3849C11.8078 14.3747 11.7948 14.3747 11.7884 14.3747ZM9.40019 10.3457C11.1001 9.34831 12.7676 8.36752 14.4577 7.3768C12.7547 6.37939 11.0904 5.3986 9.40019 4.40788V10.3457Z" fill="#1B0B3A"/>
</svg>
